u2194_ 700 - 100.ufo
<glyph name="exclam" format="1">
  <advance width="300"/>
  <unicode hex="0021"/>
  <outline>
    <contour>
      <point x="150" y="-99" type="curve" smooth="yes"/>
      <point x="204" y="-99"/>
      <point x="250" y="-53"/>
      <point x="250" y="1" type="curve" smooth="yes"/>
      <point x="250" y="18" type="line" smooth="yes"/>
      <point x="250" y="58"/>
      <point x="225" y="94"/>
      <point x="189" y="109" type="curve"/>
      <point x="225" y="125"/>
      <point x="250" y="161"/>
      <point x="250" y="201" type="curve" smooth="yes"/>
      <point x="250" y="801" type="line" smooth="yes"/>
      <point x="250" y="855"/>
      <point x="204" y="901"/>
      <point x="150" y="901" type="curve" smooth="yes"/>
      <point x="96" y="901"/>
      <point x="50" y="855"/>
      <point x="50" y="801" type="curve" smooth="yes"/>
      <point x="50" y="201" type="line" smooth="yes"/>
      <point x="50" y="161"/>
      <point x="75" y="125"/>
      <point x="111" y="110" type="curve"/>
      <point x="75" y="94"/>
      <point x="50" y="58"/>
      <point x="50" y="18" type="curve" smooth="yes"/>
      <point x="50" y="1" type="line" smooth="yes"/>
      <point x="50" y="-53"/>
      <point x="96" y="-99"/>
    </contour>
  </outline>
</glyph>
<glyph name="dollar" format="1">
  <advance width="900"/>
  <unicode hex="0024"/>
  <outline>
    <contour>
      <point x="551" y="-1" type="curve" smooth="yes"/>
      <point x="551" y="634" type="line"/>
      <point x="687" y="522" type="line" smooth="yes"/>
      <point x="729" y="488"/>
      <point x="794" y="494"/>
      <point x="828" y="535" type="curve" smooth="yes"/>
      <point x="862" y="577"/>
      <point x="856" y="642"/>
      <point x="815" y="676" type="curve" smooth="yes"/>
      <point x="572" y="876" type="line" smooth="yes"/>
      <point x="544" y="900"/>
      <point x="508" y="906"/>
      <point x="478" y="895" type="curve"/>
      <point x="469" y="898"/>
      <point x="460" y="899"/>
      <point x="451" y="899" type="curve" smooth="yes"/>
      <point x="397" y="899"/>
      <point x="351" y="853"/>
      <point x="351" y="799" type="curve" smooth="yes"/>
      <point x="351" y="730" type="line"/>
      <point x="64" y="250" type="line" smooth="yes"/>
      <point x="36" y="204"/>
      <point x="52" y="141"/>
      <point x="99" y="113" type="curve" smooth="yes"/>
      <point x="145" y="85"/>
      <point x="208" y="101"/>
      <point x="236" y="148" type="curve" smooth="yes"/>
      <point x="351" y="340" type="line"/>
      <point x="351" y="-1" type="line" smooth="yes"/>
      <point x="351" y="-55"/>
      <point x="397" y="-101"/>
      <point x="451" y="-101" type="curve" smooth="yes"/>
      <point x="505" y="-101"/>
      <point x="551" y="-55"/>
    </contour>
  </outline>
</glyph>
<glyph name="ampersand" format="1">
  <advance width="700"/>
  <unicode hex="0026"/>
  <outline>
    <contour>
      <point x="611" y="-79" type="curve" smooth="yes"/>
      <point x="654" y="-47"/>
      <point x="663" y="18"/>
      <point x="631" y="61" type="curve" smooth="yes"/>
      <point x="452" y="300" type="line"/>
      <point x="550" y="300" type="line" smooth="yes"/>
      <point x="604" y="300"/>
      <point x="650" y="346"/>
      <point x="650" y="400" type="curve" smooth="yes"/>
      <point x="650" y="454"/>
      <point x="604" y="500"/>
      <point x="550" y="500" type="curve" smooth="yes"/>
      <point x="150" y="501" type="line" smooth="yes"/>
      <point x="96" y="501"/>
      <point x="50" y="455"/>
      <point x="50" y="401" type="curve" smooth="yes"/>
      <point x="50" y="347"/>
      <point x="96" y="301"/>
      <point x="150" y="301" type="curve" smooth="yes"/>
      <point x="201" y="301" type="line"/>
      <point x="471" y="-59" type="line" smooth="yes"/>
      <point x="503" y="-102"/>
      <point x="568" y="-111"/>
    </contour>
  </outline>
</glyph>
<glyph name="asterisk" format="1">
  <advance width="699"/>
  <unicode hex="002A"/>
  <outline>
    <contour>
      <point x="261" y="216" type="curve" smooth="yes"/>
      <point x="385" y="289" type="line"/>
      <point x="420" y="242" type="line" smooth="yes"/>
      <point x="452" y="199"/>
      <point x="517" y="190"/>
      <point x="560" y="222" type="curve" smooth="yes"/>
      <point x="603" y="254"/>
      <point x="612" y="319"/>
      <point x="580" y="362" type="curve" smooth="yes"/>
      <point x="558" y="391" type="line"/>
      <point x="601" y="416" type="line" smooth="yes"/>
      <point x="647" y="443"/>
      <point x="664" y="506"/>
      <point x="636" y="553" type="curve" smooth="yes"/>
      <point x="609" y="599"/>
      <point x="546" y="616"/>
      <point x="499" y="588" type="curve" smooth="yes"/>
      <point x="438" y="552" type="line"/>
      <point x="430" y="562" type="line" smooth="yes"/>
      <point x="418" y="578"/>
      <point x="402" y="589"/>
      <point x="385" y="595" type="curve"/>
      <point x="421" y="631" type="line" smooth="yes"/>
      <point x="459" y="669"/>
      <point x="459" y="735"/>
      <point x="421" y="773" type="curve" smooth="yes"/>
      <point x="383" y="811"/>
      <point x="317" y="811"/>
      <point x="279" y="773" type="curve" smooth="yes"/>
      <point x="79" y="573" type="line" smooth="yes"/>
      <point x="41" y="535"/>
      <point x="41" y="469"/>
      <point x="79" y="431" type="curve" smooth="yes"/>
      <point x="117" y="393"/>
      <point x="183" y="393"/>
      <point x="221" y="431" type="curve" smooth="yes"/>
      <point x="257" y="467" type="line"/>
      <point x="259" y="461"/>
      <point x="261" y="455"/>
      <point x="265" y="450" type="curve"/>
      <point x="159" y="388" type="line" smooth="yes"/>
      <point x="113" y="361"/>
      <point x="96" y="298"/>
      <point x="124" y="251" type="curve" smooth="yes"/>
      <point x="151" y="205"/>
      <point x="214" y="188"/>
    </contour>
  </outline>
</glyph>
<glyph name="plus" format="1">
  <advance width="700"/>
  <unicode hex="002B"/>
  <outline>
    <contour>
      <point x="350" y="22" type="curve" smooth="yes"/>
      <point x="404" y="22"/>
      <point x="450" y="68"/>
      <point x="450" y="122" type="curve" smooth="yes"/>
      <point x="450" y="222" type="line"/>
      <point x="550" y="222" type="line" smooth="yes"/>
      <point x="604" y="222"/>
      <point x="650" y="268"/>
      <point x="650" y="322" type="curve" smooth="yes"/>
      <point x="650" y="376"/>
      <point x="604" y="422"/>
      <point x="550" y="422" type="curve" smooth="yes"/>
      <point x="450" y="422" type="line"/>
      <point x="450" y="522" type="line" smooth="yes"/>
      <point x="450" y="576"/>
      <point x="404" y="622"/>
      <point x="350" y="622" type="curve" smooth="yes"/>
      <point x="296" y="622"/>
      <point x="250" y="576"/>
      <point x="250" y="522" type="curve" smooth="yes"/>
      <point x="250" y="422" type="line"/>
      <point x="150" y="422" type="line" smooth="yes"/>
      <point x="96" y="422"/>
      <point x="50" y="376"/>
      <point x="50" y="322" type="curve" smooth="yes"/>
      <point x="50" y="268"/>
      <point x="96" y="222"/>
      <point x="150" y="222" type="curve" smooth="yes"/>
      <point x="250" y="222" type="line"/>
      <point x="250" y="122" type="line" smooth="yes"/>
      <point x="250" y="68"/>
      <point x="296" y="22"/>
    </contour>
  </outline>
</glyph>
<glyph name="zero" format="1">
  <advance width="905"/>
  <unicode hex="0030"/>
  <outline>
    <contour>
      <point x="423" y="-70" type="curve" smooth="yes"/>
      <point x="432" y="-62"/>
      <point x="439" y="-52"/>
      <point x="444" y="-41" type="curve"/>
      <point x="834" y="515" type="line" smooth="yes"/>
      <point x="880" y="581"/>
      <point x="844" y="654"/>
      <point x="784" y="671" type="curve"/>
      <point x="786" y="674" type="line" smooth="yes"/>
      <point x="818" y="717"/>
      <point x="809" y="781"/>
      <point x="766" y="814" type="curve" smooth="yes"/>
      <point x="723" y="846"/>
      <point x="659" y="837"/>
      <point x="626" y="794" type="curve" smooth="yes"/>
      <point x="374" y="462" type="line"/>
      <point x="101" y="298" type="line" smooth="yes"/>
      <point x="43" y="263"/>
      <point x="33" y="191"/>
      <point x="80" y="143" type="curve" smooth="yes"/>
      <point x="109" y="112" type="line"/>
      <point x="80" y="69"/>
      <point x="90" y="8"/>
      <point x="132" y="-24" type="curve" smooth="yes"/>
      <point x="165" y="-49"/>
      <point x="210" y="-49"/>
      <point x="245" y="-29" type="curve"/>
      <point x="271" y="-55" type="line"/>
      <point x="277" y="-65"/>
      <point x="285" y="-73"/>
      <point x="295" y="-80" type="curve" smooth="yes"/>
      <point x="313" y="-92"/>
      <point x="334" y="-98"/>
      <point x="355" y="-97" type="curve"/>
      <point x="380" y="-97"/>
      <point x="405" y="-88"/>
    </contour>
  </outline>
</glyph>
<glyph name="one" format="1">
  <advance width="900"/>
  <unicode hex="0031"/>
  <outline>
    <contour>
      <point x="150" y="-99" type="curve" smooth="yes"/>
      <point x="750" y="-99" type="line" smooth="yes"/>
      <point x="804" y="-99"/>
      <point x="850" y="-53"/>
      <point x="850" y="1" type="curve" smooth="yes"/>
      <point x="850" y="55"/>
      <point x="804" y="101"/>
      <point x="750" y="101" type="curve" smooth="yes"/>
      <point x="384" y="101" type="line"/>
      <point x="546" y="642" type="line" smooth="yes"/>
      <point x="570" y="722"/>
      <point x="508" y="787"/>
      <point x="427" y="768" type="curve" smooth="yes"/>
      <point x="127" y="698" type="line" smooth="yes"/>
      <point x="75" y="686"/>
      <point x="40" y="631"/>
      <point x="53" y="578" type="curve" smooth="yes"/>
      <point x="65" y="526"/>
      <point x="120" y="491"/>
      <point x="173" y="504" type="curve" smooth="yes"/>
      <point x="305" y="534" type="line"/>
      <point x="175" y="101" type="line"/>
      <point x="150" y="101" type="line" smooth="yes"/>
      <point x="96" y="101"/>
      <point x="50" y="55"/>
      <point x="50" y="1" type="curve" smooth="yes"/>
      <point x="50" y="-53"/>
      <point x="96" y="-99"/>
    </contour>
  </outline>
</glyph>
<glyph name="two" format="1">
  <advance width="900"/>
  <unicode hex="0032"/>
  <outline>
    <contour>
      <point x="753" y="-100" type="curve" smooth="yes"/>
      <point x="807" y="-98"/>
      <point x="852" y="-51"/>
      <point x="850" y="3" type="curve" smooth="yes"/>
      <point x="830" y="694" type="line" smooth="yes"/>
      <point x="828" y="756"/>
      <point x="776" y="799"/>
      <point x="715" y="789" type="curve" smooth="yes"/>
      <point x="135" y="699" type="line" smooth="yes"/>
      <point x="81" y="690"/>
      <point x="43" y="638"/>
      <point x="51" y="585" type="curve" smooth="yes"/>
      <point x="60" y="531"/>
      <point x="112" y="493"/>
      <point x="165" y="501" type="curve" smooth="yes"/>
      <point x="633" y="574" type="line"/>
      <point x="650" y="-3" type="line" smooth="yes"/>
      <point x="652" y="-57"/>
      <point x="699" y="-102"/>
    </contour>
  </outline>
</glyph>
<glyph name="three" format="1">
  <advance width="905"/>
  <unicode hex="0033"/>
  <outline>
    <contour>
      <point x="157" y="101" type="curve" smooth="yes"/>
      <point x="756" y="145" type="line" smooth="yes"/>
      <point x="862" y="152"/>
      <point x="891" y="276"/>
      <point x="800" y="330" type="curve" smooth="yes"/>
      <point x="201" y="687" type="line" smooth="yes"/>
      <point x="155" y="715"/>
      <point x="92" y="699"/>
      <point x="64" y="652" type="curve" smooth="yes"/>
      <point x="36" y="606"/>
      <point x="52" y="543"/>
      <point x="99" y="515" type="curve" smooth="yes"/>
      <point x="425" y="321" type="line"/>
      <point x="143" y="301" type="line" smooth="yes"/>
      <point x="89" y="297"/>
      <point x="46" y="248"/>
      <point x="50" y="194" type="curve" smooth="yes"/>
      <point x="54" y="140"/>
      <point x="103" y="97"/>
    </contour>
  </outline>
</glyph>
<glyph name="four" format="1">
  <advance width="661"/>
  <unicode hex="0034"/>
  <outline>
    <contour>
      <point x="511" y="-99" type="curve" smooth="yes"/>
      <point x="565" y="-99"/>
      <point x="611" y="-53"/>
      <point x="611" y="1" type="curve" smooth="yes"/>
      <point x="611" y="600" type="line" smooth="yes"/>
      <point x="611" y="654"/>
      <point x="565" y="700"/>
      <point x="511" y="700" type="curve" smooth="yes"/>
      <point x="457" y="700"/>
      <point x="411" y="654"/>
      <point x="411" y="600" type="curve" smooth="yes"/>
      <point x="411" y="457" type="line"/>
      <point x="266" y="697" type="line"/>
      <point x="297" y="749" type="line" smooth="yes"/>
      <point x="325" y="795"/>
      <point x="309" y="858"/>
      <point x="262" y="886" type="curve" smooth="yes"/>
      <point x="216" y="914"/>
      <point x="153" y="898"/>
      <point x="125" y="851" type="curve" smooth="yes"/>
      <point x="63" y="748" type="line" smooth="yes"/>
      <point x="46" y="719"/>
      <point x="46" y="673"/>
      <point x="63" y="645" type="curve" smooth="yes"/>
      <point x="411" y="72" type="line"/>
      <point x="411" y="1" type="line" smooth="yes"/>
      <point x="411" y="-53"/>
      <point x="457" y="-99"/>
    </contour>
  </outline>
</glyph>
<glyph name="five" format="1">
  <advance width="900"/>
  <unicode hex="0035"/>
  <outline>
    <contour>
      <point x="236" y="150" type="curve" smooth="yes"/>
      <point x="567" y="701" type="line"/>
      <point x="750" y="701" type="line" smooth="yes"/>
      <point x="804" y="701"/>
      <point x="850" y="747"/>
      <point x="850" y="801" type="curve" smooth="yes"/>
      <point x="850" y="855"/>
      <point x="804" y="901"/>
      <point x="750" y="901" type="curve" smooth="yes"/>
      <point x="510" y="901" type="line" smooth="yes"/>
      <point x="479" y="901"/>
      <point x="440" y="879"/>
      <point x="424" y="852" type="curve" smooth="yes"/>
      <point x="64" y="252" type="line" smooth="yes"/>
      <point x="36" y="206"/>
      <point x="52" y="143"/>
      <point x="99" y="115" type="curve" smooth="yes"/>
      <point x="145" y="87"/>
      <point x="208" y="103"/>
    </contour>
  </outline>
</glyph>
<glyph name="six" format="1">
  <advance width="905"/>
  <unicode hex="0036"/>
  <outline>
    <contour>
      <point x="703" y="158" type="line"/>
      <point x="805" y="330" type="line"/>
      <point x="518" y="501" type="line"/>
      <point x="755" y="501" type="line" smooth="yes"/>
      <point x="809" y="501"/>
      <point x="855" y="547"/>
      <point x="855" y="601" type="curve" smooth="yes"/>
      <point x="855" y="655"/>
      <point x="809" y="701"/>
      <point x="755" y="701" type="curve" smooth="yes"/>
      <point x="155" y="701" type="line" smooth="yes"/>
      <point x="46" y="701"/>
      <point x="10" y="571"/>
      <point x="104" y="515" type="curve" smooth="yes"/>
    </contour>
  </outline>
</glyph>
<glyph name="seven" format="1">
  <advance width="884"/>
  <unicode hex="0037"/>
  <outline>
    <contour>
      <point x="433" y="-58" type="curve" smooth="yes"/>
      <point x="816" y="517" type="line" smooth="yes"/>
      <point x="853" y="573"/>
      <point x="831" y="641"/>
      <point x="768" y="665" type="curve" smooth="yes"/>
      <point x="186" y="890" type="line" smooth="yes"/>
      <point x="136" y="910"/>
      <point x="76" y="883"/>
      <point x="57" y="833" type="curve" smooth="yes"/>
      <point x="37" y="783"/>
      <point x="64" y="723"/>
      <point x="114" y="704" type="curve" smooth="yes"/>
      <point x="580" y="524" type="line"/>
      <point x="267" y="52" type="line" smooth="yes"/>
      <point x="237" y="7"/>
      <point x="250" y="-56"/>
      <point x="295" y="-86" type="curve" smooth="yes"/>
      <point x="340" y="-116"/>
      <point x="403" y="-103"/>
    </contour>
  </outline>
</glyph>
<glyph name="eight" format="1">
  <advance width="310"/>
  <unicode hex="0038"/>
  <outline>
    <contour>
      <point x="260" y="400" type="curve" smooth="yes"/>
      <point x="260" y="454"/>
      <point x="214" y="500"/>
      <point x="160" y="500" type="curve" smooth="yes"/>
      <point x="150" y="500" type="line" smooth="yes"/>
      <point x="96" y="500"/>
      <point x="50" y="454"/>
      <point x="50" y="400" type="curve" smooth="yes"/>
      <point x="50" y="346"/>
      <point x="96" y="300"/>
      <point x="150" y="300" type="curve" smooth="yes"/>
      <point x="160" y="300" type="line" smooth="yes"/>
      <point x="214" y="300"/>
      <point x="260" y="346"/>
    </contour>
  </outline>
</glyph>
<glyph name="nine" format="1">
  <advance width="905"/>
  <unicode hex="0039"/>
  <outline>
    <contour>
      <point x="150" y="100" type="curve" smooth="yes"/>
      <point x="750" y="100" type="line" smooth="yes"/>
      <point x="859" y="100"/>
      <point x="895" y="230"/>
      <point x="801" y="286" type="curve" smooth="yes"/>
      <point x="202" y="643" type="line"/>
      <point x="100" y="471" type="line"/>
      <point x="387" y="300" type="line"/>
      <point x="150" y="300" type="line" smooth="yes"/>
      <point x="96" y="300"/>
      <point x="50" y="254"/>
      <point x="50" y="200" type="curve" smooth="yes"/>
      <point x="50" y="146"/>
      <point x="96" y="100"/>
    </contour>
  </outline>
</glyph>
<glyph name="less" format="1">
  <advance width="300"/>
  <unicode hex="003C"/>
  <outline>
    <contour>
      <point x="150" y="603" type="curve" smooth="yes"/>
      <point x="96" y="603"/>
      <point x="50" y="557"/>
      <point x="50" y="503" type="curve" smooth="yes"/>
      <point x="50" y="103" type="line" smooth="yes"/>
      <point x="50" y="49"/>
      <point x="96" y="3"/>
      <point x="150" y="3" type="curve" smooth="yes"/>
      <point x="204" y="3"/>
      <point x="250" y="49"/>
      <point x="250" y="103" type="curve" smooth="yes"/>
      <point x="250" y="503" type="line" smooth="yes"/>
      <point x="250" y="557"/>
      <point x="204" y="603"/>
    </contour>
  </outline>
</glyph>
<glyph name="greater" format="1">
  <advance width="300"/>
  <unicode hex="003E"/>
  <outline>
    <contour>
      <point x="150" y="620" type="curve" smooth="yes"/>
      <point x="96" y="620"/>
      <point x="50" y="574"/>
      <point x="50" y="520" type="curve" smooth="yes"/>
      <point x="50" y="120" type="line" smooth="yes"/>
      <point x="50" y="66"/>
      <point x="96" y="20"/>
      <point x="150" y="20" type="curve" smooth="yes"/>
      <point x="204" y="20"/>
      <point x="250" y="66"/>
      <point x="250" y="120" type="curve" smooth="yes"/>
      <point x="250" y="520" type="line" smooth="yes"/>
      <point x="250" y="574"/>
      <point x="204" y="620"/>
    </contour>
  </outline>
</glyph>
<glyph name="question" format="1">
  <advance width="499"/>
  <unicode hex="003F"/>
  <outline>
    <contour>
      <point x="349" y="-100" type="curve" smooth="yes"/>
      <point x="403" y="-100"/>
      <point x="449" y="-54"/>
      <point x="449" y="0" type="curve" smooth="yes"/>
      <point x="449" y="11" type="line" smooth="yes"/>
      <point x="449" y="54"/>
      <point x="420" y="92"/>
      <point x="381" y="105" type="curve"/>
      <point x="385" y="107"/>
      <point x="390" y="108"/>
      <point x="394" y="111" type="curve" smooth="yes"/>
      <point x="442" y="135"/>
      <point x="463" y="196"/>
      <point x="438" y="245" type="curve" smooth="yes"/>
      <point x="239" y="644" type="line" smooth="yes"/>
      <point x="215" y="692"/>
      <point x="154" y="713"/>
      <point x="105" y="688" type="curve" smooth="yes"/>
      <point x="57" y="664"/>
      <point x="36" y="603"/>
      <point x="61" y="554" type="curve" smooth="yes"/>
      <point x="260" y="155" type="line" smooth="yes"/>
      <point x="272" y="131"/>
      <point x="293" y="114"/>
      <point x="318" y="106" type="curve"/>
      <point x="278" y="92"/>
      <point x="249" y="54"/>
      <point x="249" y="11" type="curve" smooth="yes"/>
      <point x="249" y="0" type="line" smooth="yes"/>
      <point x="249" y="-54"/>
      <point x="295" y="-100"/>
    </contour>
  </outline>
</glyph>
<glyph name="at" format="1">
  <advance width="703"/>
  <unicode hex="0040"/>
  <outline>
    <contour>
      <point x="610" y="-124" type="curve" smooth="yes"/>
      <point x="654" y="-93"/>
      <point x="666" y="-29"/>
      <point x="635" y="15" type="curve" smooth="yes"/>
      <point x="598" y="69" type="line"/>
      <point x="630" y="86"/>
      <point x="653" y="120"/>
      <point x="653" y="158" type="curve" smooth="yes"/>
      <point x="653" y="558" type="line" smooth="yes"/>
      <point x="653" y="559" type="line"/>
      <point x="653" y="563"/>
      <point x="653" y="561"/>
      <point x="653" y="559" type="curve"/>
      <point x="653" y="560"/>
      <point x="653" y="561"/>
      <point x="653" y="562" type="curve"/>
      <point x="653" y="565" type="line" smooth="yes"/>
      <point x="651" y="589"/>
      <point x="641" y="610"/>
      <point x="625" y="627" type="curve"/>
      <point x="624" y="627"/>
      <point x="624" y="627"/>
      <point x="624" y="628" type="curve"/>
      <point x="623" y="628"/>
      <point x="622" y="629"/>
      <point x="622" y="630" type="curve"/>
      <point x="621" y="630"/>
      <point x="620" y="631"/>
      <point x="620" y="632" type="curve"/>
      <point x="619" y="632"/>
      <point x="619" y="632"/>
      <point x="619" y="633" type="curve"/>
      <point x="618" y="634"/>
      <point x="617" y="634"/>
      <point x="615" y="635" type="curve"/>
      <point x="615" y="635"/>
      <point x="615" y="635"/>
      <point x="615" y="635" type="curve"/>
      <point x="599" y="649"/>
      <point x="579" y="657"/>
      <point x="557" y="658" type="curve"/>
      <point x="557" y="658"/>
      <point x="557" y="658"/>
      <point x="557" y="658" type="curve"/>
      <point x="553" y="658" type="line" smooth="yes"/>
      <point x="552" y="658" type="line"/>
      <point x="548" y="658"/>
      <point x="550" y="658"/>
      <point x="552" y="658" type="curve"/>
      <point x="552" y="658"/>
      <point x="550" y="658"/>
      <point x="549" y="658" type="curve"/>
      <point x="546" y="658" type="line" smooth="yes"/>
      <point x="146" y="631" type="line" smooth="yes"/>
      <point x="62" y="626"/>
      <point x="23" y="544"/>
      <point x="71" y="475" type="curve" smooth="yes"/>
      <point x="471" y="-99" type="line" smooth="yes"/>
      <point x="502" y="-143"/>
      <point x="566" y="-155"/>
    </contour>
    <contour>
      <point x="453" y="276" type="line"/>
      <point x="336" y="444" type="line"/>
      <point x="453" y="451" type="line"/>
    </contour>
  </outline>
</glyph>
<glyph name="A" format="1">
  <advance width="300"/>
  <unicode hex="0041"/>
  <outline>
    <contour>
      <point x="150" y="446" type="curve" smooth="yes"/>
      <point x="96" y="446"/>
      <point x="50" y="400"/>
      <point x="50" y="346" type="curve" smooth="yes"/>
      <point x="50" y="-4" type="line" smooth="yes"/>
      <point x="50" y="-58"/>
      <point x="96" y="-104"/>
      <point x="150" y="-104" type="curve" smooth="yes"/>
      <point x="204" y="-104"/>
      <point x="250" y="-58"/>
      <point x="250" y="-4" type="curve" smooth="yes"/>
      <point x="250" y="346" type="line" smooth="yes"/>
      <point x="250" y="400"/>
      <point x="204" y="446"/>
    </contour>
  </outline>
</glyph>
<glyph name="B" format="1">
  <advance width="700"/>
  <unicode hex="0042"/>
  <outline>
    <contour>
      <point x="650" y="404" type="curve" smooth="yes"/>
      <point x="650" y="458"/>
      <point x="604" y="504"/>
      <point x="550" y="504" type="curve" smooth="yes"/>
      <point x="150" y="504" type="line" smooth="yes"/>
      <point x="96" y="504"/>
      <point x="50" y="458"/>
      <point x="50" y="404" type="curve" smooth="yes"/>
      <point x="50" y="350"/>
      <point x="96" y="304"/>
      <point x="150" y="304" type="curve" smooth="yes"/>
      <point x="550" y="304" type="line" smooth="yes"/>
      <point x="604" y="304"/>
      <point x="650" y="350"/>
    </contour>
  </outline>
</glyph>
<glyph name="F" format="1">
  <advance width="899"/>
  <unicode hex="0046"/>
  <outline>
    <contour>
      <point x="250" y="-2" type="curve" smooth="yes"/>
      <point x="253" y="189" type="line"/>
      <point x="800" y="516" type="line" smooth="yes"/>
      <point x="847" y="544"/>
      <point x="863" y="607"/>
      <point x="835" y="653" type="curve" smooth="yes"/>
      <point x="807" y="700"/>
      <point x="744" y="716"/>
      <point x="698" y="688" type="curve" smooth="yes"/>
      <point x="102" y="332" type="line" smooth="yes"/>
      <point x="76" y="316"/>
      <point x="54" y="278"/>
      <point x="54" y="248" type="curve" smooth="yes"/>
      <point x="50" y="2" type="line" smooth="yes"/>
      <point x="49" y="-52"/>
      <point x="94" y="-99"/>
      <point x="148" y="-100" type="curve" smooth="yes"/>
      <point x="202" y="-101"/>
      <point x="249" y="-56"/>
    </contour>
  </outline>
</glyph>
<glyph name="H" format="1">
  <advance width="900"/>
  <unicode hex="0048"/>
  <outline>
    <contour>
      <point x="750" y="-104" type="curve" smooth="yes"/>
      <point x="804" y="-104"/>
      <point x="850" y="-58"/>
      <point x="850" y="-4" type="curve" smooth="yes"/>
      <point x="850" y="696" type="line" smooth="yes"/>
      <point x="850" y="783"/>
      <point x="767" y="827"/>
      <point x="694" y="779" type="curve" smooth="yes"/>
      <point x="264" y="492" type="line"/>
      <point x="250" y="801" type="line" smooth="yes"/>
      <point x="247" y="855"/>
      <point x="199" y="898"/>
      <point x="145" y="896" type="curve" smooth="yes"/>
      <point x="91" y="893"/>
      <point x="48" y="845"/>
      <point x="50" y="791" type="curve" smooth="yes"/>
      <point x="73" y="306" type="line" smooth="yes"/>
      <point x="77" y="222"/>
      <point x="158" y="181"/>
      <point x="228" y="228" type="curve" smooth="yes"/>
      <point x="650" y="509" type="line"/>
      <point x="650" y="-4" type="line" smooth="yes"/>
      <point x="650" y="-58"/>
      <point x="696" y="-104"/>
    </contour>
  </outline>
</glyph>
<glyph name="I" format="1">
  <advance width="900"/>
  <unicode hex="0049"/>
  <outline>
    <contour>
      <point x="240" y="-45" type="curve" smooth="yes"/>
      <point x="527" y="548" type="line"/>
      <point x="802" y="713" type="line" smooth="yes"/>
      <point x="848" y="741"/>
      <point x="864" y="804"/>
      <point x="836" y="851" type="curve" smooth="yes"/>
      <point x="808" y="897"/>
      <point x="745" y="913"/>
      <point x="698" y="885" type="curve" smooth="yes"/>
      <point x="398" y="704" type="line" smooth="yes"/>
      <point x="384" y="696"/>
      <point x="367" y="677"/>
      <point x="360" y="662" type="curve" smooth="yes"/>
      <point x="60" y="43" type="line" smooth="yes"/>
      <point x="36" y="-6"/>
      <point x="58" y="-68"/>
      <point x="106" y="-91" type="curve" smooth="yes"/>
      <point x="155" y="-115"/>
      <point x="217" y="-93"/>
    </contour>
  </outline>
</glyph>
<glyph name="M" format="1">
  <advance width="900"/>
  <unicode hex="004D"/>
  <outline>
    <contour>
      <point x="750" y="-101" type="curve" smooth="yes"/>
      <point x="804" y="-101"/>
      <point x="850" y="-55"/>
      <point x="850" y="-1" type="curve" smooth="yes"/>
      <point x="850" y="699" type="line" smooth="yes"/>
      <point x="850" y="783"/>
      <point x="771" y="828"/>
      <point x="699" y="785" type="curve" smooth="yes"/>
      <point x="99" y="425" type="line" smooth="yes"/>
      <point x="72" y="409"/>
      <point x="50" y="370"/>
      <point x="50" y="339" type="curve"/>
      <point x="50" y="-1" type="line" smooth="yes"/>
      <point x="50" y="-55"/>
      <point x="96" y="-101"/>
      <point x="150" y="-101" type="curve" smooth="yes"/>
      <point x="204" y="-101"/>
      <point x="250" y="-55"/>
      <point x="250" y="-1" type="curve" smooth="yes"/>
      <point x="250" y="282" type="line"/>
      <point x="650" y="522" type="line"/>
      <point x="650" y="-1" type="line" smooth="yes"/>
      <point x="650" y="-55"/>
      <point x="696" y="-101"/>
    </contour>
  </outline>
</glyph>
<glyph name="Q" format="1">
  <advance width="901"/>
  <unicode hex="0051"/>
  <outline>
    <contour>
      <point x="650" y="-29" type="curve" smooth="yes"/>
      <point x="846" y="638" type="line" smooth="yes"/>
      <point x="874" y="733"/>
      <point x="784" y="803"/>
      <point x="699" y="752" type="curve" smooth="yes"/>
      <point x="102" y="395" type="line" smooth="yes"/>
      <point x="37" y="356"/>
      <point x="32" y="277"/>
      <point x="91" y="231" type="curve" smooth="yes"/>
      <point x="482" y="-79" type="line" smooth="yes"/>
      <point x="500" y="-94"/>
      <point x="522" y="-100"/>
      <point x="544" y="-100" type="curve"/>
      <point x="590" y="-105"/>
      <point x="636" y="-75"/>
    </contour>
    <contour>
      <point x="498" y="163" type="line"/>
      <point x="328" y="297" type="line"/>
      <point x="582" y="449" type="line"/>
    </contour>
  </outline>
</glyph>
<glyph name="R" format="1">
  <advance width="899"/>
  <unicode hex="0052"/>
  <outline>
    <contour>
      <point x="209" y="-84" type="curve" smooth="yes"/>
      <point x="450" y="96" type="line"/>
      <point x="690" y="-84" type="line" smooth="yes"/>
      <point x="733" y="-116"/>
      <point x="798" y="-107"/>
      <point x="830" y="-64" type="curve" smooth="yes"/>
      <point x="862" y="-21"/>
      <point x="853" y="44"/>
      <point x="810" y="76" type="curve" smooth="yes"/>
      <point x="616" y="221" type="line"/>
      <point x="654" y="255"/>
      <point x="661" y="315"/>
      <point x="630" y="356" type="curve" smooth="yes"/>
      <point x="598" y="399"/>
      <point x="533" y="408"/>
      <point x="490" y="376" type="curve" smooth="yes"/>
      <point x="450" y="346" type="line"/>
      <point x="409" y="376" type="line" smooth="yes"/>
      <point x="366" y="408"/>
      <point x="301" y="399"/>
      <point x="269" y="356" type="curve" smooth="yes"/>
      <point x="238" y="315"/>
      <point x="245" y="255"/>
      <point x="283" y="221" type="curve"/>
      <point x="89" y="76" type="line" smooth="yes"/>
      <point x="46" y="44"/>
      <point x="37" y="-21"/>
      <point x="69" y="-64" type="curve" smooth="yes"/>
      <point x="101" y="-107"/>
      <point x="166" y="-116"/>
    </contour>
  </outline>
</glyph>
<glyph name="S" format="1">
  <advance width="900"/>
  <unicode hex="0053"/>
  <outline>
    <contour>
      <point x="487" y="-46" type="curve" smooth="yes"/>
      <point x="837" y="554" type="line" smooth="yes"/>
      <point x="865" y="600"/>
      <point x="848" y="663"/>
      <point x="801" y="690" type="curve" smooth="yes"/>
      <point x="755" y="718"/>
      <point x="692" y="701"/>
      <point x="665" y="654" type="curve" smooth="yes"/>
      <point x="372" y="154" type="line"/>
      <point x="212" y="282" type="line" smooth="yes"/>
      <point x="170" y="316"/>
      <point x="106" y="309"/>
      <point x="72" y="266" type="curve" smooth="yes"/>
      <point x="38" y="224"/>
      <point x="45" y="160"/>
      <point x="88" y="126" type="curve" smooth="yes"/>
      <point x="338" y="-74" type="line" smooth="yes"/>
      <point x="387" y="-114"/>
      <point x="455" y="-101"/>
    </contour>
  </outline>
</glyph>
<glyph name="V" format="1">
  <advance width="900"/>
  <unicode hex="0056"/>
  <outline>
    <contour>
      <point x="404" y="62" type="curve" smooth="yes"/>
      <point x="829" y="609" type="line" smooth="yes"/>
      <point x="841" y="624"/>
      <point x="850" y="651"/>
      <point x="850" y="670" type="curve" smooth="yes"/>
      <point x="850" y="800" type="line" smooth="yes"/>
      <point x="850" y="854"/>
      <point x="804" y="900"/>
      <point x="750" y="900" type="curve" smooth="yes"/>
      <point x="696" y="900"/>
      <point x="650" y="854"/>
      <point x="650" y="800" type="curve" smooth="yes"/>
      <point x="650" y="704" type="line"/>
      <point x="371" y="345" type="line"/>
      <point x="247" y="825" type="line" smooth="yes"/>
      <point x="233" y="877"/>
      <point x="177" y="910"/>
      <point x="125" y="897" type="curve" smooth="yes"/>
      <point x="73" y="883"/>
      <point x="40" y="827"/>
      <point x="53" y="775" type="curve" smooth="yes"/>
      <point x="228" y="98" type="line" smooth="yes"/>
      <point x="251" y="10"/>
      <point x="348" y="-10"/>
    </contour>
  </outline>
</glyph>
<glyph name="Z" format="1">
  <advance width="900"/>
  <unicode hex="005A"/>
  <outline>
    <contour>
      <point x="849" y="-17" type="curve" smooth="yes"/>
      <point x="858" y="36"/>
      <point x="820" y="89"/>
      <point x="767" y="99" type="curve" smooth="yes"/>
      <point x="260" y="185" type="line"/>
      <point x="250" y="802" type="line" smooth="yes"/>
      <point x="249" y="856"/>
      <point x="202" y="901"/>
      <point x="148" y="900" type="curve" smooth="yes"/>
      <point x="94" y="899"/>
      <point x="49" y="852"/>
      <point x="50" y="798" type="curve" smooth="yes"/>
      <point x="62" y="99" type="line" smooth="yes"/>
      <point x="62" y="53"/>
      <point x="100" y="10"/>
      <point x="145" y="2" type="curve" smooth="yes"/>
      <point x="733" y="-99" type="line" smooth="yes"/>
      <point x="786" y="-108"/>
      <point x="839" y="-70"/>
    </contour>
  </outline>
</glyph>
<glyph name="bracketleft" format="1">
  <advance width="599"/>
  <unicode hex="005B"/>
  <outline>
    <contour>
      <point x="536" y="-49" type="curve" smooth="yes"/>
      <point x="563" y="-2"/>
      <point x="545" y="60"/>
      <point x="498" y="87" type="curve" smooth="yes"/>
      <point x="279" y="211" type="line"/>
      <point x="539" y="757" type="line" smooth="yes"/>
      <point x="563" y="806"/>
      <point x="541" y="867"/>
      <point x="492" y="890" type="curve" smooth="yes"/>
      <point x="443" y="914"/>
      <point x="382" y="892"/>
      <point x="359" y="843" type="curve" smooth="yes"/>
      <point x="59" y="213" type="line" smooth="yes"/>
      <point x="37" y="167"/>
      <point x="55" y="108"/>
      <point x="100" y="83" type="curve" smooth="yes"/>
      <point x="400" y="-87" type="line" smooth="yes"/>
      <point x="447" y="-114"/>
      <point x="509" y="-96"/>
    </contour>
  </outline>
</glyph>
<glyph name="backslash" format="1">
  <advance width="898"/>
  <unicode hex="005C"/>
  <outline>
    <contour>
      <point x="809" y="-81" type="curve" smooth="yes"/>
      <point x="852" y="-49"/>
      <point x="861" y="16"/>
      <point x="829" y="59" type="curve" smooth="yes"/>
      <point x="229" y="859" type="line" smooth="yes"/>
      <point x="197" y="902"/>
      <point x="132" y="911"/>
      <point x="89" y="879" type="curve" smooth="yes"/>
      <point x="46" y="847"/>
      <point x="37" y="782"/>
      <point x="69" y="739" type="curve" smooth="yes"/>
      <point x="669" y="-61" type="line" smooth="yes"/>
      <point x="701" y="-104"/>
      <point x="766" y="-113"/>
    </contour>
  </outline>
</glyph>
<glyph name="bracketright" format="1">
  <advance width="599"/>
  <unicode hex="005D"/>
  <outline>
    <contour>
      <point x="199" y="-88" type="curve" smooth="yes"/>
      <point x="499" y="82" type="line" smooth="yes"/>
      <point x="544" y="107"/>
      <point x="562" y="166"/>
      <point x="540" y="212" type="curve" smooth="yes"/>
      <point x="240" y="842" type="line" smooth="yes"/>
      <point x="217" y="891"/>
      <point x="156" y="913"/>
      <point x="107" y="889" type="curve" smooth="yes"/>
      <point x="58" y="866"/>
      <point x="36" y="805"/>
      <point x="60" y="756" type="curve" smooth="yes"/>
      <point x="320" y="210" type="line"/>
      <point x="101" y="86" type="line" smooth="yes"/>
      <point x="54" y="59"/>
      <point x="36" y="-3"/>
      <point x="63" y="-50" type="curve" smooth="yes"/>
      <point x="90" y="-97"/>
      <point x="152" y="-115"/>
    </contour>
  </outline>
</glyph>
<glyph name="asciicircum" format="1">
  <advance width="900"/>
  <unicode hex="005E"/>
  <outline>
    <contour>
      <point x="50" y="502" type="curve" smooth="yes"/>
      <point x="50" y="448"/>
      <point x="96" y="402"/>
      <point x="150" y="402" type="curve" smooth="yes"/>
      <point x="750" y="402" type="line" smooth="yes"/>
      <point x="804" y="402"/>
      <point x="850" y="448"/>
      <point x="850" y="502" type="curve" smooth="yes"/>
      <point x="850" y="556"/>
      <point x="804" y="602"/>
      <point x="750" y="602" type="curve" smooth="yes"/>
      <point x="150" y="602" type="line" smooth="yes"/>
      <point x="96" y="602"/>
      <point x="50" y="556"/>
    </contour>
  </outline>
</glyph>
<glyph name="grave" format="1">
  <advance width="598"/>
  <unicode hex="0060"/>
  <outline>
    <contour>
      <point x="532" y="873" type="curve" smooth="yes"/>
      <point x="562" y="917"/>
      <point x="549" y="981"/>
      <point x="504" y="1011" type="curve" smooth="yes"/>
      <point x="204" y="1211" type="line" smooth="yes"/>
      <point x="160" y="1241"/>
      <point x="96" y="1228"/>
      <point x="66" y="1183" type="curve" smooth="yes"/>
      <point x="36" y="1139"/>
      <point x="49" y="1075"/>
      <point x="94" y="1045" type="curve" smooth="yes"/>
      <point x="394" y="845" type="line" smooth="yes"/>
      <point x="438" y="815"/>
      <point x="502" y="828"/>
    </contour>
  </outline>
</glyph>
<glyph name="c" format="1">
  <advance width="906"/>
  <unicode hex="0063"/>
  <outline>
    <contour>
      <point x="855" y="190" type="curve" smooth="yes"/>
      <point x="859" y="244"/>
      <point x="817" y="293"/>
      <point x="763" y="298" type="curve" smooth="yes"/>
      <point x="479" y="320" type="line"/>
      <point x="806" y="512" type="line" smooth="yes"/>
      <point x="852" y="539"/>
      <point x="869" y="602"/>
      <point x="841" y="649" type="curve" smooth="yes"/>
      <point x="814" y="695"/>
      <point x="751" y="712"/>
      <point x="704" y="684" type="curve" smooth="yes"/>
      <point x="104" y="332" type="line" smooth="yes"/>
      <point x="13" y="278"/>
      <point x="42" y="154"/>
      <point x="147" y="146" type="curve" smooth="yes"/>
      <point x="747" y="98" type="line" smooth="yes"/>
      <point x="801" y="94"/>
      <point x="850" y="136"/>
    </contour>
  </outline>
</glyph>
<glyph name="d" format="1">
  <advance width="900"/>
  <unicode hex="0064"/>
  <outline>
    <contour>
      <point x="201" y="153" type="curve" smooth="yes"/>
      <point x="801" y="503" type="line" smooth="yes"/>
      <point x="834" y="522"/>
      <point x="852" y="559"/>
      <point x="850" y="595" type="curve"/>
      <point x="851" y="614"/>
      <point x="847" y="633"/>
      <point x="837" y="650" type="curve" smooth="yes"/>
      <point x="809" y="697"/>
      <point x="746" y="713"/>
      <point x="700" y="685" type="curve" smooth="yes"/>
      <point x="100" y="325" type="line" smooth="yes"/>
      <point x="-14" y="257"/>
      <point x="87" y="86"/>
    </contour>
  </outline>
</glyph>
<glyph name="e" format="1">
  <advance width="900"/>
  <unicode hex="0065"/>
  <outline>
    <contour>
      <point x="622" y="-71" type="curve" smooth="yes"/>
      <point x="820" y="125" type="line" smooth="yes"/>
      <point x="859" y="163"/>
      <point x="859" y="228"/>
      <point x="821" y="266" type="curve" smooth="yes"/>
      <point x="783" y="305"/>
      <point x="718" y="305"/>
      <point x="680" y="267" type="curve" smooth="yes"/>
      <point x="537" y="126" type="line"/>
      <point x="346" y="245" type="line"/>
      <point x="800" y="516" type="line" smooth="yes"/>
      <point x="847" y="544"/>
      <point x="863" y="607"/>
      <point x="835" y="653" type="curve" smooth="yes"/>
      <point x="807" y="700"/>
      <point x="744" y="716"/>
      <point x="698" y="688" type="curve" smooth="yes"/>
      <point x="103" y="332" type="line" smooth="yes"/>
      <point x="33" y="291"/>
      <point x="32" y="204"/>
      <point x="101" y="162" type="curve" smooth="yes"/>
      <point x="497" y="-85" type="line" smooth="yes"/>
      <point x="515" y="-96"/>
      <point x="535" y="-100"/>
      <point x="555" y="-99" type="curve"/>
      <point x="579" y="-99"/>
      <point x="604" y="-89"/>
    </contour>
  </outline>
</glyph>
<glyph name="f" format="1">
  <advance width="899"/>
  <unicode hex="0066"/>
  <outline>
    <contour>
      <point x="250" y="2" type="curve" smooth="yes"/>
      <point x="253" y="195" type="line"/>
      <point x="437" y="304" type="line"/>
      <point x="550" y="304" type="line" smooth="yes"/>
      <point x="604" y="304"/>
      <point x="650" y="350"/>
      <point x="650" y="404" type="curve" smooth="yes"/>
      <point x="650" y="413"/>
      <point x="649" y="421"/>
      <point x="647" y="429" type="curve"/>
      <point x="800" y="520" type="line" smooth="yes"/>
      <point x="847" y="548"/>
      <point x="863" y="611"/>
      <point x="835" y="657" type="curve" smooth="yes"/>
      <point x="807" y="704"/>
      <point x="744" y="720"/>
      <point x="698" y="692" type="curve" smooth="yes"/>
      <point x="382" y="504" type="line"/>
      <point x="350" y="504" type="line" smooth="yes"/>
      <point x="304" y="504"/>
      <point x="264" y="471"/>
      <point x="253" y="427" type="curve"/>
      <point x="103" y="338" type="line" smooth="yes"/>
      <point x="76" y="322"/>
      <point x="55" y="285"/>
      <point x="54" y="254" type="curve" smooth="yes"/>
      <point x="50" y="6" type="line" smooth="yes"/>
      <point x="49" y="-48"/>
      <point x="94" y="-95"/>
      <point x="148" y="-96" type="curve" smooth="yes"/>
      <point x="202" y="-97"/>
      <point x="249" y="-52"/>
    </contour>
  </outline>
</glyph>
<glyph name="g" format="1">
  <advance width="902"/>
  <unicode hex="0067"/>
  <outline>
    <contour>
      <point x="203" y="158" type="curve" smooth="yes"/>
      <point x="803" y="518" type="line" smooth="yes"/>
      <point x="850" y="546"/>
      <point x="866" y="609"/>
      <point x="838" y="655" type="curve" smooth="yes"/>
      <point x="810" y="702"/>
      <point x="747" y="718"/>
      <point x="701" y="690" type="curve" smooth="yes"/>
      <point x="421" y="522" type="line"/>
      <point x="439" y="555" type="line" smooth="yes"/>
      <point x="466" y="603"/>
      <point x="448" y="665"/>
      <point x="401" y="691" type="curve" smooth="yes"/>
      <point x="353" y="718"/>
      <point x="291" y="700"/>
      <point x="265" y="653" type="curve" smooth="yes"/>
      <point x="65" y="293" type="line" smooth="yes"/>
      <point x="11" y="196"/>
      <point x="109" y="102"/>
    </contour>
  </outline>
</glyph>
<glyph name="h" format="1">
  <advance width="900"/>
  <unicode hex="0068"/>
  <outline>
    <contour>
      <point x="750" y="-104" type="curve" smooth="yes"/>
      <point x="804" y="-104"/>
      <point x="850" y="-58"/>
      <point x="850" y="-4" type="curve" smooth="yes"/>
      <point x="850" y="696" type="line" smooth="yes"/>
      <point x="850" y="783"/>
      <point x="767" y="827"/>
      <point x="695" y="779" type="curve" smooth="yes"/>
      <point x="264" y="492" type="line"/>
      <point x="250" y="800" type="line" smooth="yes"/>
      <point x="247" y="854"/>
      <point x="199" y="898"/>
      <point x="146" y="896" type="curve" smooth="yes"/>
      <point x="92" y="893"/>
      <point x="48" y="845"/>
      <point x="50" y="792" type="curve" smooth="yes"/>
      <point x="72" y="306" type="line" smooth="yes"/>
      <point x="76" y="222"/>
      <point x="157" y="181"/>
      <point x="227" y="228" type="curve" smooth="yes"/>
      <point x="650" y="509" type="line"/>
      <point x="650" y="-4" type="line" smooth="yes"/>
      <point x="650" y="-58"/>
      <point x="696" y="-104"/>
    </contour>
  </outline>
</glyph>
<glyph name="j" format="1">
  <advance width="899"/>
  <unicode hex="006A"/>
  <outline>
    <contour>
      <point x="200" y="-88" type="curve" smooth="yes"/>
      <point x="499" y="83" type="line" smooth="yes"/>
      <point x="514" y="92"/>
      <point x="533" y="111"/>
      <point x="540" y="127" type="curve" smooth="yes"/>
      <point x="840" y="756" type="line" smooth="yes"/>
      <point x="864" y="805"/>
      <point x="842" y="866"/>
      <point x="793" y="889" type="curve" smooth="yes"/>
      <point x="744" y="913"/>
      <point x="683" y="891"/>
      <point x="660" y="842" type="curve" smooth="yes"/>
      <point x="373" y="241" type="line"/>
      <point x="100" y="86" type="line" smooth="yes"/>
      <point x="54" y="59"/>
      <point x="36" y="-4"/>
      <point x="63" y="-51" type="curve" smooth="yes"/>
      <point x="90" y="-97"/>
      <point x="153" y="-115"/>
    </contour>
  </outline>
</glyph>
<glyph name="k" format="1">
  <advance width="900"/>
  <unicode hex="006B"/>
  <outline>
    <contour>
      <point x="836" y="-47" type="curve" smooth="yes"/>
      <point x="864" y="-1"/>
      <point x="848" y="62"/>
      <point x="801" y="90" type="curve" smooth="yes"/>
      <point x="250" y="421" type="line"/>
      <point x="250" y="804" type="line" smooth="yes"/>
      <point x="250" y="858"/>
      <point x="204" y="904"/>
      <point x="150" y="904" type="curve" smooth="yes"/>
      <point x="96" y="904"/>
      <point x="50" y="858"/>
      <point x="50" y="804" type="curve" smooth="yes"/>
      <point x="50" y="364" type="line" smooth="yes"/>
      <point x="50" y="333"/>
      <point x="72" y="294"/>
      <point x="99" y="278" type="curve" smooth="yes"/>
      <point x="699" y="-82" type="line" smooth="yes"/>
      <point x="745" y="-110"/>
      <point x="808" y="-94"/>
    </contour>
    <contour>
      <point x="505" y="315" type="curve" smooth="yes"/>
      <point x="554" y="290"/>
      <point x="615" y="311"/>
      <point x="639" y="359" type="curve" smooth="yes"/>
      <point x="839" y="759" type="line" smooth="yes"/>
      <point x="864" y="808"/>
      <point x="843" y="869"/>
      <point x="795" y="893" type="curve" smooth="yes"/>
      <point x="746" y="918"/>
      <point x="685" y="897"/>
      <point x="661" y="849" type="curve" smooth="yes"/>
      <point x="461" y="449" type="line" smooth="yes"/>
      <point x="436" y="400"/>
      <point x="457" y="339"/>
    </contour>
  </outline>
</glyph>
<glyph name="l" format="1">
  <advance width="900"/>
  <unicode hex="006C"/>
  <outline>
    <contour>
      <point x="848" y="-18" type="curve" smooth="yes"/>
      <point x="858" y="35"/>
      <point x="821" y="89"/>
      <point x="768" y="98" type="curve" smooth="yes"/>
      <point x="260" y="192" type="line"/>
      <point x="250" y="802" type="line" smooth="yes"/>
      <point x="249" y="856"/>
      <point x="202" y="901"/>
      <point x="148" y="900" type="curve" smooth="yes"/>
      <point x="94" y="899"/>
      <point x="49" y="852"/>
      <point x="50" y="798" type="curve" smooth="yes"/>
      <point x="62" y="107" type="line" smooth="yes"/>
      <point x="62" y="62"/>
      <point x="99" y="19"/>
      <point x="143" y="10" type="curve" smooth="yes"/>
      <point x="732" y="-98" type="line" smooth="yes"/>
      <point x="785" y="-108"/>
      <point x="839" y="-71"/>
    </contour>
  </outline>
</glyph>
<glyph name="n" format="1">
  <advance width="900"/>
  <unicode hex="006E"/>
  <outline>
    <contour>
      <point x="250" y="-1" type="curve" smooth="yes"/>
      <point x="250" y="58" type="line"/>
      <point x="437" y="482" type="line"/>
      <point x="661" y="53" type="line" smooth="yes"/>
      <point x="713" y="-46"/>
      <point x="850" y="-13"/>
      <point x="850" y="99" type="curve" smooth="yes"/>
      <point x="850" y="799" type="line" smooth="yes"/>
      <point x="850" y="853"/>
      <point x="804" y="899"/>
      <point x="750" y="899" type="curve" smooth="yes"/>
      <point x="696" y="899"/>
      <point x="650" y="853"/>
      <point x="650" y="799" type="curve" smooth="yes"/>
      <point x="650" y="507" type="line"/>
      <point x="518" y="759" type="line" smooth="yes"/>
      <point x="476" y="840"/>
      <point x="375" y="837"/>
      <point x="338" y="753" type="curve" smooth="yes"/>
      <point x="59" y="119" type="line" smooth="yes"/>
      <point x="54" y="109"/>
      <point x="50" y="91"/>
      <point x="50" y="79" type="curve" smooth="yes"/>
      <point x="50" y="-1" type="line" smooth="yes"/>
      <point x="50" y="-55"/>
      <point x="96" y="-101"/>
      <point x="150" y="-101" type="curve" smooth="yes"/>
      <point x="204" y="-101"/>
      <point x="250" y="-55"/>
    </contour>
  </outline>
</glyph>
<glyph name="o" format="1">
  <advance width="901"/>
  <unicode hex="006F"/>
  <outline>
    <contour>
      <point x="653" y="-29" type="curve" smooth="yes"/>
      <point x="846" y="638" type="line" smooth="yes"/>
      <point x="873" y="733"/>
      <point x="783" y="803"/>
      <point x="699" y="752" type="curve" smooth="yes"/>
      <point x="102" y="395" type="line" smooth="yes"/>
      <point x="37" y="356"/>
      <point x="32" y="277"/>
      <point x="91" y="230" type="curve" smooth="yes"/>
      <point x="485" y="-80" type="line" smooth="yes"/>
      <point x="503" y="-94"/>
      <point x="525" y="-101"/>
      <point x="547" y="-100" type="curve"/>
      <point x="593" y="-105"/>
      <point x="640" y="-75"/>
    </contour>
    <contour>
      <point x="500" y="163" type="line"/>
      <point x="329" y="298" type="line"/>
      <point x="583" y="450" type="line"/>
    </contour>
  </outline>
</glyph>
<glyph name="p" format="1">
  <advance width="900"/>
  <unicode hex="0070"/>
  <outline>
    <contour>
      <point x="150" y="-97" type="curve" smooth="yes"/>
      <point x="204" y="-97"/>
      <point x="250" y="-51"/>
      <point x="250" y="3" type="curve" smooth="yes"/>
      <point x="250" y="42" type="line"/>
      <point x="801" y="370" type="line" smooth="yes"/>
      <point x="914" y="438"/>
      <point x="813" y="609"/>
      <point x="699" y="542" type="curve" smooth="yes"/>
      <point x="99" y="189" type="line" smooth="yes"/>
      <point x="72" y="173"/>
      <point x="50" y="135"/>
      <point x="50" y="103" type="curve"/>
      <point x="50" y="3" type="line" smooth="yes"/>
      <point x="50" y="-51"/>
      <point x="96" y="-97"/>
    </contour>
  </outline>
</glyph>
<glyph name="t" format="1">
  <advance width="612"/>
  <unicode hex="0074"/>
  <outline>
    <contour>
      <point x="550" y="-2" type="curve" smooth="yes"/>
      <point x="562" y="695" type="line" smooth="yes"/>
      <point x="563" y="736"/>
      <point x="532" y="779"/>
      <point x="494" y="792" type="curve" smooth="yes"/>
      <point x="181" y="895" type="line" smooth="yes"/>
      <point x="130" y="912"/>
      <point x="72" y="883"/>
      <point x="55" y="831" type="curve" smooth="yes"/>
      <point x="38" y="780"/>
      <point x="67" y="722"/>
      <point x="119" y="705" type="curve" smooth="yes"/>
      <point x="361" y="625" type="line"/>
      <point x="350" y="2" type="line" smooth="yes"/>
      <point x="349" y="-52"/>
      <point x="394" y="-99"/>
      <point x="448" y="-100" type="curve" smooth="yes"/>
      <point x="502" y="-101"/>
      <point x="549" y="-56"/>
    </contour>
  </outline>
</glyph>
<glyph name="w" format="1">
  <advance width="900"/>
  <unicode hex="0077"/>
  <outline>
    <contour>
      <point x="201" y="14" type="curve" smooth="yes"/>
      <point x="801" y="374" type="line" smooth="yes"/>
      <point x="828" y="390"/>
      <point x="850" y="429"/>
      <point x="850" y="460" type="curve" smooth="yes"/>
      <point x="850" y="800" type="line" smooth="yes"/>
      <point x="850" y="854"/>
      <point x="804" y="900"/>
      <point x="750" y="900" type="curve" smooth="yes"/>
      <point x="696" y="900"/>
      <point x="650" y="854"/>
      <point x="650" y="800" type="curve" smooth="yes"/>
      <point x="650" y="517" type="line"/>
      <point x="250" y="277" type="line"/>
      <point x="250" y="800" type="line" smooth="yes"/>
      <point x="250" y="854"/>
      <point x="204" y="900"/>
      <point x="150" y="900" type="curve" smooth="yes"/>
      <point x="96" y="900"/>
      <point x="50" y="854"/>
      <point x="50" y="800" type="curve" smooth="yes"/>
      <point x="50" y="100" type="line"/>
      <point x="50" y="16"/>
      <point x="129" y="-29"/>
    </contour>
  </outline>
</glyph>
<glyph name="x" format="1">
  <advance width="900"/>
  <unicode hex="0078"/>
  <outline>
    <contour>
      <point x="249" y="-15" type="curve" smooth="yes"/>
      <point x="289" y="244" type="line"/>
      <point x="687" y="-78" type="line" smooth="yes"/>
      <point x="729" y="-112"/>
      <point x="794" y="-105"/>
      <point x="828" y="-63" type="curve" smooth="yes"/>
      <point x="862" y="-21"/>
      <point x="855" y="44"/>
      <point x="813" y="78" type="curve" smooth="yes"/>
      <point x="413" y="401" type="line"/>
      <point x="813" y="722" type="line" smooth="yes"/>
      <point x="855" y="756"/>
      <point x="862" y="820"/>
      <point x="828" y="863" type="curve" smooth="yes"/>
      <point x="794" y="905"/>
      <point x="730" y="912"/>
      <point x="687" y="878" type="curve" smooth="yes"/>
      <point x="291" y="560" type="line"/>
      <point x="249" y="816" type="line" smooth="yes"/>
      <point x="240" y="870"/>
      <point x="187" y="907"/>
      <point x="134" y="899" type="curve" smooth="yes"/>
      <point x="80" y="890"/>
      <point x="43" y="837"/>
      <point x="51" y="784" type="curve" smooth="yes"/>
      <point x="111" y="420" type="line" smooth="yes"/>
      <point x="112" y="415"/>
      <point x="114" y="409"/>
      <point x="116" y="404" type="curve"/>
      <point x="112" y="395"/>
      <point x="109" y="387"/>
      <point x="108" y="379" type="curve" smooth="yes"/>
      <point x="51" y="15" type="line" smooth="yes"/>
      <point x="43" y="-38"/>
      <point x="81" y="-91"/>
      <point x="135" y="-99" type="curve" smooth="yes"/>
      <point x="188" y="-107"/>
      <point x="241" y="-69"/>
    </contour>
  </outline>
</glyph>
<glyph name="y" format="1">
  <advance width="807"/>
  <unicode hex="0079"/>
  <outline>
    <contour>
      <point x="202" y="-84" type="curve" smooth="yes"/>
      <point x="708" y="230" type="line" smooth="yes"/>
      <point x="766" y="266"/>
      <point x="774" y="339"/>
      <point x="724" y="387" type="curve" smooth="yes"/>
      <point x="218" y="870" type="line" smooth="yes"/>
      <point x="179" y="908"/>
      <point x="114" y="906"/>
      <point x="77" y="867" type="curve" smooth="yes"/>
      <point x="39" y="828"/>
      <point x="41" y="763"/>
      <point x="80" y="726" type="curve" smooth="yes"/>
      <point x="492" y="332" type="line"/>
      <point x="96" y="86" type="line" smooth="yes"/>
      <point x="50" y="58"/>
      <point x="36" y="-6"/>
      <point x="64" y="-52" type="curve" smooth="yes"/>
      <point x="92" y="-98"/>
      <point x="156" y="-112"/>
    </contour>
  </outline>
</glyph>
<glyph name="braceleft" format="1">
  <advance width="599"/>
  <unicode hex="007B"/>
  <outline>
    <contour>
      <point x="536" y="-52" type="curve" smooth="yes"/>
      <point x="563" y="-5"/>
      <point x="546" y="58"/>
      <point x="499" y="85" type="curve" smooth="yes"/>
      <point x="279" y="211" type="line"/>
      <point x="539" y="755" type="line" smooth="yes"/>
      <point x="563" y="804"/>
      <point x="541" y="865"/>
      <point x="492" y="888" type="curve" smooth="yes"/>
      <point x="443" y="912"/>
      <point x="382" y="890"/>
      <point x="359" y="841" type="curve" smooth="yes"/>
      <point x="59" y="213" type="line" smooth="yes"/>
      <point x="37" y="167"/>
      <point x="55" y="109"/>
      <point x="100" y="83" type="curve" smooth="yes"/>
      <point x="399" y="-89" type="line" smooth="yes"/>
      <point x="446" y="-116"/>
      <point x="509" y="-99"/>
    </contour>
  </outline>
</glyph>
<glyph name="braceright" format="1">
  <advance width="599"/>
  <unicode hex="007D"/>
  <outline>
    <contour>
      <point x="200" y="-88" type="curve" smooth="yes"/>
      <point x="499" y="84" type="line" smooth="yes"/>
      <point x="544" y="110"/>
      <point x="562" y="168"/>
      <point x="540" y="214" type="curve" smooth="yes"/>
      <point x="240" y="842" type="line" smooth="yes"/>
      <point x="217" y="891"/>
      <point x="156" y="913"/>
      <point x="107" y="889" type="curve" smooth="yes"/>
      <point x="58" y="866"/>
      <point x="36" y="805"/>
      <point x="60" y="756" type="curve" smooth="yes"/>
      <point x="320" y="212" type="line"/>
      <point x="100" y="86" type="line" smooth="yes"/>
      <point x="53" y="59"/>
      <point x="36" y="-4"/>
      <point x="63" y="-51" type="curve" smooth="yes"/>
      <point x="90" y="-98"/>
      <point x="153" y="-115"/>
    </contour>
  </outline>
</glyph>
<glyph name="asciitilde" format="1">
  <advance width="900"/>
  <unicode hex="007E"/>
  <outline>
    <contour>
      <point x="55" y="71" type="curve" smooth="yes"/>
      <point x="72" y="20"/>
      <point x="130" y="-9"/>
      <point x="182" y="8" type="curve" smooth="yes"/>
      <point x="782" y="208" type="line" smooth="yes"/>
      <point x="833" y="225"/>
      <point x="862" y="283"/>
      <point x="845" y="335" type="curve" smooth="yes"/>
      <point x="828" y="386"/>
      <point x="770" y="415"/>
      <point x="718" y="398" type="curve" smooth="yes"/>
      <point x="118" y="198" type="line" smooth="yes"/>
      <point x="67" y="181"/>
      <point x="38" y="123"/>
    </contour>
  </outline>
</glyph>
<glyph name="cent" format="1">
  <advance width="400"/>
  <unicode hex="00A2"/>
  <outline>
    <contour>
      <point x="250" y="-100" type="curve" smooth="yes"/>
      <point x="304" y="-100"/>
      <point x="350" y="-54"/>
      <point x="350" y="0" type="curve" smooth="yes"/>
      <point x="350" y="400" type="line" smooth="yes"/>
      <point x="350" y="454"/>
      <point x="304" y="500"/>
      <point x="250" y="500" type="curve" smooth="yes"/>
      <point x="250" y="554"/>
      <point x="204" y="600"/>
      <point x="150" y="600" type="curve" smooth="yes"/>
      <point x="96" y="600"/>
      <point x="50" y="554"/>
      <point x="50" y="500" type="curve" smooth="yes"/>
      <point x="50" y="400" type="line" smooth="yes"/>
      <point x="50" y="346"/>
      <point x="96" y="300"/>
      <point x="150" y="300" type="curve" smooth="yes"/>
      <point x="150" y="100" type="line" smooth="yes"/>
      <point x="96" y="100"/>
      <point x="50" y="54"/>
      <point x="50" y="0" type="curve" smooth="yes"/>
      <point x="50" y="-100" type="line" smooth="yes"/>
      <point x="50" y="-154"/>
      <point x="96" y="-200"/>
      <point x="150" y="-200" type="curve" smooth="yes"/>
      <point x="204" y="-200"/>
      <point x="250" y="-154"/>
    </contour>
  </outline>
</glyph>
<glyph name="sterling" format="1">
  <advance width="650"/>
  <unicode hex="00A3"/>
  <outline>
    <contour>
      <point x="528" y="-95" type="curve" smooth="yes"/>
      <point x="580" y="-80"/>
      <point x="611" y="-23"/>
      <point x="596" y="29" type="curve" smooth="yes"/>
      <point x="510" y="322" type="line"/>
      <point x="534" y="340"/>
      <point x="550" y="369"/>
      <point x="550" y="401" type="curve" smooth="yes"/>
      <point x="550" y="452"/>
      <point x="508" y="496"/>
      <point x="458" y="501" type="curve"/>
      <point x="422" y="625" type="line"/>
      <point x="557" y="719" type="line" smooth="yes"/>
      <point x="601" y="750"/>
      <point x="613" y="814"/>
      <point x="582" y="858" type="curve" smooth="yes"/>
      <point x="551" y="902"/>
      <point x="487" y="914"/>
      <point x="443" y="883" type="curve" smooth="yes"/>
      <point x="248" y="748" type="line" smooth="yes"/>
      <point x="216" y="725"/>
      <point x="198" y="676"/>
      <point x="209" y="638" type="curve" smooth="yes"/>
      <point x="249" y="501" type="line"/>
      <point x="150" y="501" type="line" smooth="yes"/>
      <point x="96" y="501"/>
      <point x="50" y="455"/>
      <point x="50" y="401" type="curve" smooth="yes"/>
      <point x="50" y="347"/>
      <point x="96" y="301"/>
      <point x="150" y="301" type="curve" smooth="yes"/>
      <point x="308" y="301" type="line"/>
      <point x="404" y="-27" type="line" smooth="yes"/>
      <point x="419" y="-79"/>
      <point x="476" y="-110"/>
    </contour>
  </outline>
</glyph>
<glyph name="section" format="1">
  <advance width="900"/>
  <unicode hex="00A7"/>
  <outline>
    <contour>
      <point x="805" y="186" type="curve" smooth="yes"/>
      <point x="775" y="213" type="line"/>
      <point x="780" y="245"/>
      <point x="769" y="279"/>
      <point x="744" y="301" type="curve" smooth="yes"/>
      <point x="476" y="544" type="line"/>
      <point x="735" y="504" type="line" smooth="yes"/>
      <point x="788" y="496"/>
      <point x="841" y="534"/>
      <point x="849" y="588" type="curve" smooth="yes"/>
      <point x="857" y="641"/>
      <point x="819" y="694"/>
      <point x="765" y="702" type="curve" smooth="yes"/>
      <point x="177" y="793" type="line" smooth="yes"/>
      <point x="71" y="809"/>
      <point x="15" y="692"/>
      <point x="95" y="620" type="curve" smooth="yes"/>
      <point x="125" y="593" type="line"/>
      <point x="120" y="561"/>
      <point x="131" y="527"/>
      <point x="156" y="505" type="curve" smooth="yes"/>
      <point x="424" y="262" type="line"/>
      <point x="165" y="302" type="line" smooth="yes"/>
      <point x="112" y="310"/>
      <point x="59" y="272"/>
      <point x="51" y="218" type="curve" smooth="yes"/>
      <point x="43" y="165"/>
      <point x="81" y="112"/>
      <point x="135" y="104" type="curve" smooth="yes"/>
      <point x="723" y="13" type="line" smooth="yes"/>
      <point x="829" y="-3"/>
      <point x="885" y="114"/>
    </contour>
  </outline>
</glyph>
<glyph name="guillemotleft" format="1">
  <advance width="500"/>
  <unicode hex="00AB"/>
  <outline>
    <contour>
      <point x="250" y="397" type="curve" smooth="yes"/>
      <point x="250" y="451"/>
      <point x="204" y="497"/>
      <point x="150" y="497" type="curve" smooth="yes"/>
      <point x="96" y="497"/>
      <point x="50" y="451"/>
      <point x="50" y="397" type="curve" smooth="yes"/>
      <point x="50" y="-3" type="line" smooth="yes"/>
      <point x="50" y="-57"/>
      <point x="96" y="-103"/>
      <point x="150" y="-103" type="curve" smooth="yes"/>
      <point x="204" y="-103"/>
      <point x="250" y="-57"/>
      <point x="250" y="-3" type="curve" smooth="yes"/>
      <point x="250" y="-57"/>
      <point x="296" y="-103"/>
      <point x="350" y="-103" type="curve" smooth="yes"/>
      <point x="404" y="-103"/>
      <point x="450" y="-57"/>
      <point x="450" y="-3" type="curve" smooth="yes"/>
      <point x="450" y="397" type="line" smooth="yes"/>
      <point x="450" y="451"/>
      <point x="404" y="497"/>
      <point x="350" y="497" type="curve" smooth="yes"/>
      <point x="296" y="497"/>
      <point x="250" y="451"/>
    </contour>
  </outline>
</glyph>
<glyph name="degree" format="1">
  <advance width="300"/>
  <unicode hex="00B0"/>
  <outline>
    <contour>
      <point x="150" y="413" type="curve" smooth="yes"/>
      <point x="204" y="413"/>
      <point x="250" y="459"/>
      <point x="250" y="513" type="curve" smooth="yes"/>
      <point x="250" y="523" type="line" smooth="yes"/>
      <point x="250" y="577"/>
      <point x="204" y="623"/>
      <point x="150" y="623" type="curve" smooth="yes"/>
      <point x="96" y="623"/>
      <point x="50" y="577"/>
      <point x="50" y="523" type="curve" smooth="yes"/>
      <point x="50" y="513" type="line" smooth="yes"/>
      <point x="50" y="459"/>
      <point x="96" y="413"/>
    </contour>
  </outline>
</glyph>
<glyph name="paragraph" format="1">
  <advance width="500"/>
  <unicode hex="00B6"/>
  <outline>
    <contour>
      <point x="350" y="-100" type="curve" smooth="yes"/>
      <point x="404" y="-100"/>
      <point x="450" y="-54"/>
      <point x="450" y="0" type="curve" smooth="yes"/>
      <point x="450" y="30" type="line" smooth="yes"/>
      <point x="450" y="38"/>
      <point x="448" y="51"/>
      <point x="446" y="59" type="curve" smooth="yes"/>
      <point x="246" y="729" type="line" smooth="yes"/>
      <point x="211" y="844"/>
      <point x="50" y="821"/>
      <point x="50" y="700" type="curve" smooth="yes"/>
      <point x="50" y="0" type="line" smooth="yes"/>
      <point x="50" y="-54"/>
      <point x="96" y="-100"/>
      <point x="150" y="-100" type="curve" smooth="yes"/>
      <point x="204" y="-100"/>
      <point x="250" y="-54"/>
      <point x="250" y="0" type="curve" smooth="yes"/>
      <point x="250" y="-54"/>
      <point x="296" y="-100"/>
    </contour>
  </outline>
</glyph>
<glyph name="guillemotright" format="1">
  <advance width="500"/>
  <unicode hex="00BB"/>
  <outline>
    <contour>
      <point x="250" y="401" type="curve" smooth="yes"/>
      <point x="250" y="455"/>
      <point x="204" y="501"/>
      <point x="150" y="501" type="curve" smooth="yes"/>
      <point x="96" y="501"/>
      <point x="50" y="455"/>
      <point x="50" y="401" type="curve" smooth="yes"/>
      <point x="50" y="1" type="line" smooth="yes"/>
      <point x="50" y="-53"/>
      <point x="96" y="-99"/>
      <point x="150" y="-99" type="curve" smooth="yes"/>
      <point x="204" y="-99"/>
      <point x="250" y="-53"/>
      <point x="250" y="1" type="curve" smooth="yes"/>
      <point x="250" y="-53"/>
      <point x="296" y="-99"/>
      <point x="350" y="-99" type="curve" smooth="yes"/>
      <point x="404" y="-99"/>
      <point x="450" y="-53"/>
      <point x="450" y="1" type="curve" smooth="yes"/>
      <point x="450" y="401" type="line" smooth="yes"/>
      <point x="450" y="455"/>
      <point x="404" y="501"/>
      <point x="350" y="501" type="curve" smooth="yes"/>
      <point x="296" y="501"/>
      <point x="250" y="455"/>
    </contour>
  </outline>
</glyph>
<glyph name="Ccedilla" format="1">
  <advance width="905"/>
  <unicode hex="00C7"/>
  <outline>
    <contour>
      <point x="855" y="194" type="curve" smooth="yes"/>
      <point x="858" y="248"/>
      <point x="816" y="297"/>
      <point x="762" y="301" type="curve" smooth="yes"/>
      <point x="480" y="320" type="line"/>
      <point x="806" y="515" type="line" smooth="yes"/>
      <point x="853" y="543"/>
      <point x="869" y="606"/>
      <point x="841" y="652" type="curve" smooth="yes"/>
      <point x="813" y="699"/>
      <point x="750" y="715"/>
      <point x="704" y="687" type="curve" smooth="yes"/>
      <point x="104" y="327" type="line" smooth="yes"/>
      <point x="13" y="273"/>
      <point x="43" y="149"/>
      <point x="148" y="142" type="curve" smooth="yes"/>
      <point x="748" y="101" type="line" smooth="yes"/>
      <point x="802" y="98"/>
      <point x="851" y="140"/>
    </contour>
  </outline>
</glyph>
<glyph name="Igrave" format="1">
  <advance width="900"/>
  <unicode hex="00CC"/>
  <outline>
    <contour>
      <point x="537" y="873" type="curve" smooth="yes"/>
      <point x="567" y="917"/>
      <point x="554" y="981"/>
      <point x="509" y="1011" type="curve" smooth="yes"/>
      <point x="209" y="1211" type="line" smooth="yes"/>
      <point x="165" y="1241"/>
      <point x="101" y="1228"/>
      <point x="71" y="1183" type="curve" smooth="yes"/>
      <point x="41" y="1139"/>
      <point x="54" y="1075"/>
      <point x="99" y="1045" type="curve" smooth="yes"/>
      <point x="399" y="845" type="line" smooth="yes"/>
      <point x="443" y="815"/>
      <point x="507" y="828"/>
    </contour>
    <contour>
      <point x="240" y="-45" type="curve" smooth="yes"/>
      <point x="527" y="548" type="line"/>
      <point x="802" y="713" type="line" smooth="yes"/>
      <point x="848" y="741"/>
      <point x="864" y="804"/>
      <point x="836" y="851" type="curve" smooth="yes"/>
      <point x="808" y="897"/>
      <point x="745" y="913"/>
      <point x="698" y="885" type="curve" smooth="yes"/>
      <point x="398" y="704" type="line" smooth="yes"/>
      <point x="384" y="696"/>
      <point x="367" y="677"/>
      <point x="360" y="662" type="curve" smooth="yes"/>
      <point x="60" y="43" type="line" smooth="yes"/>
      <point x="36" y="-6"/>
      <point x="58" y="-68"/>
      <point x="106" y="-91" type="curve" smooth="yes"/>
      <point x="155" y="-115"/>
      <point x="217" y="-93"/>
    </contour>
  </outline>
</glyph>
<glyph name="Iacute" format="1">
  <advance width="903"/>
  <unicode hex="00CD"/>
  <outline>
    <contour>
      <point x="371" y="873" type="curve" smooth="yes"/>
      <point x="401" y="828"/>
      <point x="465" y="815"/>
      <point x="509" y="845" type="curve" smooth="yes"/>
      <point x="809" y="1045" type="line" smooth="yes"/>
      <point x="854" y="1075"/>
      <point x="867" y="1139"/>
      <point x="837" y="1183" type="curve" smooth="yes"/>
      <point x="807" y="1228"/>
      <point x="743" y="1241"/>
      <point x="699" y="1211" type="curve" smooth="yes"/>
      <point x="399" y="1011" type="line" smooth="yes"/>
      <point x="354" y="981"/>
      <point x="341" y="917"/>
    </contour>
    <contour>
      <point x="240" y="-45" type="curve" smooth="yes"/>
      <point x="527" y="548" type="line"/>
      <point x="802" y="713" type="line" smooth="yes"/>
      <point x="848" y="741"/>
      <point x="864" y="804"/>
      <point x="836" y="851" type="curve" smooth="yes"/>
      <point x="808" y="897"/>
      <point x="745" y="913"/>
      <point x="698" y="885" type="curve" smooth="yes"/>
      <point x="398" y="704" type="line" smooth="yes"/>
      <point x="384" y="696"/>
      <point x="367" y="677"/>
      <point x="360" y="662" type="curve" smooth="yes"/>
      <point x="60" y="43" type="line" smooth="yes"/>
      <point x="36" y="-6"/>
      <point x="58" y="-68"/>
      <point x="106" y="-91" type="curve" smooth="yes"/>
      <point x="155" y="-115"/>
      <point x="217" y="-93"/>
    </contour>
  </outline>
</glyph>
<glyph name="Ograve" format="1">
  <advance width="901"/>
  <unicode hex="00D2"/>
  <outline>
    <contour>
      <point x="536" y="873" type="curve" smooth="yes"/>
      <point x="566" y="917"/>
      <point x="553" y="981"/>
      <point x="508" y="1011" type="curve" smooth="yes"/>
      <point x="208" y="1211" type="line" smooth="yes"/>
      <point x="164" y="1241"/>
      <point x="100" y="1228"/>
      <point x="70" y="1183" type="curve" smooth="yes"/>
      <point x="40" y="1139"/>
      <point x="53" y="1075"/>
      <point x="98" y="1045" type="curve" smooth="yes"/>
      <point x="398" y="845" type="line" smooth="yes"/>
      <point x="442" y="815"/>
      <point x="506" y="828"/>
    </contour>
    <contour>
      <point x="653" y="-29" type="curve" smooth="yes"/>
      <point x="846" y="638" type="line" smooth="yes"/>
      <point x="873" y="733"/>
      <point x="783" y="803"/>
      <point x="699" y="752" type="curve" smooth="yes"/>
      <point x="102" y="395" type="line" smooth="yes"/>
      <point x="37" y="356"/>
      <point x="32" y="277"/>
      <point x="91" y="230" type="curve" smooth="yes"/>
      <point x="485" y="-80" type="line" smooth="yes"/>
      <point x="503" y="-94"/>
      <point x="525" y="-101"/>
      <point x="547" y="-100" type="curve"/>
      <point x="593" y="-105"/>
      <point x="640" y="-75"/>
    </contour>
    <contour>
      <point x="500" y="163" type="line"/>
      <point x="329" y="298" type="line"/>
      <point x="583" y="450" type="line"/>
    </contour>
  </outline>
</glyph>
<glyph name="Oacute" format="1">
  <advance width="902"/>
  <unicode hex="00D3"/>
  <outline>
    <contour>
      <point x="370" y="873" type="curve" smooth="yes"/>
      <point x="400" y="828"/>
      <point x="464" y="815"/>
      <point x="508" y="845" type="curve" smooth="yes"/>
      <point x="808" y="1045" type="line" smooth="yes"/>
      <point x="853" y="1075"/>
      <point x="866" y="1139"/>
      <point x="836" y="1183" type="curve" smooth="yes"/>
      <point x="806" y="1228"/>
      <point x="742" y="1241"/>
      <point x="698" y="1211" type="curve" smooth="yes"/>
      <point x="398" y="1011" type="line" smooth="yes"/>
      <point x="353" y="981"/>
      <point x="340" y="917"/>
    </contour>
    <contour>
      <point x="653" y="-29" type="curve" smooth="yes"/>
      <point x="846" y="638" type="line" smooth="yes"/>
      <point x="873" y="733"/>
      <point x="783" y="803"/>
      <point x="699" y="752" type="curve" smooth="yes"/>
      <point x="102" y="395" type="line" smooth="yes"/>
      <point x="37" y="356"/>
      <point x="32" y="277"/>
      <point x="91" y="230" type="curve" smooth="yes"/>
      <point x="485" y="-80" type="line" smooth="yes"/>
      <point x="503" y="-94"/>
      <point x="525" y="-101"/>
      <point x="547" y="-100" type="curve"/>
      <point x="593" y="-105"/>
      <point x="640" y="-75"/>
    </contour>
    <contour>
      <point x="500" y="163" type="line"/>
      <point x="329" y="298" type="line"/>
      <point x="583" y="450" type="line"/>
    </contour>
  </outline>
</glyph>
<glyph name="Ocircumflex" format="1">
  <advance width="903"/>
  <unicode hex="00D4"/>
  <outline>
    <contour>
      <point x="53" y="928" type="curve" smooth="yes"/>
      <point x="53" y="874"/>
      <point x="99" y="828"/>
      <point x="153" y="828" type="curve" smooth="yes"/>
      <point x="753" y="828" type="line" smooth="yes"/>
      <point x="807" y="828"/>
      <point x="853" y="874"/>
      <point x="853" y="928" type="curve" smooth="yes"/>
      <point x="853" y="982"/>
      <point x="807" y="1028"/>
      <point x="753" y="1028" type="curve" smooth="yes"/>
      <point x="153" y="1028" type="line" smooth="yes"/>
      <point x="99" y="1028"/>
      <point x="53" y="982"/>
    </contour>
    <contour>
      <point x="653" y="-29" type="curve" smooth="yes"/>
      <point x="846" y="638" type="line" smooth="yes"/>
      <point x="873" y="733"/>
      <point x="783" y="803"/>
      <point x="699" y="752" type="curve" smooth="yes"/>
      <point x="102" y="395" type="line" smooth="yes"/>
      <point x="37" y="356"/>
      <point x="32" y="277"/>
      <point x="91" y="230" type="curve" smooth="yes"/>
      <point x="485" y="-80" type="line" smooth="yes"/>
      <point x="503" y="-94"/>
      <point x="525" y="-101"/>
      <point x="547" y="-100" type="curve"/>
      <point x="593" y="-105"/>
      <point x="640" y="-75"/>
    </contour>
    <contour>
      <point x="500" y="163" type="line"/>
      <point x="329" y="298" type="line"/>
      <point x="583" y="450" type="line"/>
    </contour>
  </outline>
</glyph>
<glyph name="Otilde" format="1">
  <advance width="903"/>
  <unicode hex="00D5"/>
  <outline>
    <contour>
      <point x="58" y="896" type="curve" smooth="yes"/>
      <point x="75" y="845"/>
      <point x="133" y="816"/>
      <point x="185" y="833" type="curve" smooth="yes"/>
      <point x="785" y="1033" type="line" smooth="yes"/>
      <point x="836" y="1050"/>
      <point x="865" y="1108"/>
      <point x="848" y="1160" type="curve" smooth="yes"/>
      <point x="831" y="1211"/>
      <point x="773" y="1240"/>
      <point x="721" y="1223" type="curve" smooth="yes"/>
      <point x="121" y="1023" type="line" smooth="yes"/>
      <point x="70" y="1006"/>
      <point x="41" y="948"/>
    </contour>
    <contour>
      <point x="653" y="-29" type="curve" smooth="yes"/>
      <point x="846" y="638" type="line" smooth="yes"/>
      <point x="873" y="733"/>
      <point x="783" y="803"/>
      <point x="699" y="752" type="curve" smooth="yes"/>
      <point x="102" y="395" type="line" smooth="yes"/>
      <point x="37" y="356"/>
      <point x="32" y="277"/>
      <point x="91" y="230" type="curve" smooth="yes"/>
      <point x="485" y="-80" type="line" smooth="yes"/>
      <point x="503" y="-94"/>
      <point x="525" y="-101"/>
      <point x="547" y="-100" type="curve"/>
      <point x="593" y="-105"/>
      <point x="640" y="-75"/>
    </contour>
    <contour>
      <point x="500" y="163" type="line"/>
      <point x="329" y="298" type="line"/>
      <point x="583" y="450" type="line"/>
    </contour>
  </outline>
</glyph>
<glyph name="Oslash" format="1">
  <advance width="898"/>
  <unicode hex="00D8"/>
  <outline>
    <contour>
      <point x="229" y="-59" type="curve" smooth="yes"/>
      <point x="829" y="741" type="line" smooth="yes"/>
      <point x="861" y="784"/>
      <point x="852" y="849"/>
      <point x="809" y="881" type="curve" smooth="yes"/>
      <point x="766" y="913"/>
      <point x="701" y="904"/>
      <point x="669" y="861" type="curve" smooth="yes"/>
      <point x="69" y="61" type="line" smooth="yes"/>
      <point x="37" y="18"/>
      <point x="46" y="-47"/>
      <point x="89" y="-79" type="curve" smooth="yes"/>
      <point x="132" y="-111"/>
      <point x="197" y="-102"/>
    </contour>
    <contour>
      <point x="644" y="101" type="curve" smooth="yes"/>
      <point x="644" y="155"/>
      <point x="598" y="201"/>
      <point x="544" y="201" type="curve" smooth="yes"/>
      <point x="534" y="201" type="line" smooth="yes"/>
      <point x="480" y="201"/>
      <point x="434" y="155"/>
      <point x="434" y="101" type="curve" smooth="yes"/>
      <point x="434" y="47"/>
      <point x="480" y="1"/>
      <point x="534" y="1" type="curve" smooth="yes"/>
      <point x="544" y="1" type="line" smooth="yes"/>
      <point x="598" y="1"/>
      <point x="644" y="47"/>
    </contour>
  </outline>
</glyph>
<glyph name="Ugrave" format="1">
  <advance width="899"/>
  <unicode hex="00D9"/>
  <outline>
    <contour>
      <point x="534" y="873" type="curve" smooth="yes"/>
      <point x="564" y="917"/>
      <point x="551" y="981"/>
      <point x="506" y="1011" type="curve" smooth="yes"/>
      <point x="206" y="1211" type="line" smooth="yes"/>
      <point x="162" y="1241"/>
      <point x="98" y="1228"/>
      <point x="68" y="1183" type="curve" smooth="yes"/>
      <point x="38" y="1139"/>
      <point x="51" y="1075"/>
      <point x="96" y="1045" type="curve" smooth="yes"/>
      <point x="396" y="845" type="line" smooth="yes"/>
      <point x="440" y="815"/>
      <point x="504" y="828"/>
    </contour>
    <contour>
      <point x="838" y="98" type="curve" smooth="yes"/>
      <point x="849" y="797" type="line" smooth="yes"/>
      <point x="850" y="851"/>
      <point x="805" y="898"/>
      <point x="751" y="899" type="curve" smooth="yes"/>
      <point x="697" y="900"/>
      <point x="650" y="855"/>
      <point x="649" y="801" type="curve" smooth="yes"/>
      <point x="641" y="279" type="line"/>
      <point x="250" y="524" type="line"/>
      <point x="250" y="799" type="line" smooth="yes"/>
      <point x="250" y="853"/>
      <point x="204" y="899"/>
      <point x="150" y="899" type="curve" smooth="yes"/>
      <point x="96" y="899"/>
      <point x="50" y="853"/>
      <point x="50" y="799" type="curve" smooth="yes"/>
      <point x="50" y="469" type="line" smooth="yes"/>
      <point x="50" y="438"/>
      <point x="71" y="401"/>
      <point x="97" y="384" type="curve" smooth="yes"/>
      <point x="685" y="15" type="line" smooth="yes"/>
      <point x="757" y="-30"/>
      <point x="837" y="13"/>
    </contour>
  </outline>
</glyph>
<glyph name="agrave" format="1">
  <advance width="899"/>
  <unicode hex="00E0"/>
  <outline>
    <contour>
      <point x="532" y="873" type="curve" smooth="yes"/>
      <point x="562" y="917"/>
      <point x="549" y="981"/>
      <point x="504" y="1011" type="curve" smooth="yes"/>
      <point x="204" y="1211" type="line" smooth="yes"/>
      <point x="160" y="1241"/>
      <point x="96" y="1228"/>
      <point x="66" y="1183" type="curve" smooth="yes"/>
      <point x="36" y="1139"/>
      <point x="49" y="1075"/>
      <point x="94" y="1045" type="curve" smooth="yes"/>
      <point x="394" y="845" type="line" smooth="yes"/>
      <point x="438" y="815"/>
      <point x="502" y="828"/>
    </contour>
    <contour>
      <point x="749" y="446" type="curve" smooth="yes"/>
      <point x="695" y="446"/>
      <point x="649" y="400"/>
      <point x="649" y="346" type="curve" smooth="yes"/>
      <point x="649" y="-4" type="line" smooth="yes"/>
      <point x="649" y="-58"/>
      <point x="695" y="-104"/>
      <point x="749" y="-104" type="curve" smooth="yes"/>
      <point x="803" y="-104"/>
      <point x="849" y="-58"/>
      <point x="849" y="-4" type="curve" smooth="yes"/>
      <point x="849" y="346" type="line" smooth="yes"/>
      <point x="849" y="400"/>
      <point x="803" y="446"/>
    </contour>
  </outline>
</glyph>
<glyph name="aacute" format="1">
  <advance width="599"/>
  <unicode hex="00E1"/>
  <outline>
    <contour>
      <point x="66" y="873" type="curve" smooth="yes"/>
      <point x="96" y="828"/>
      <point x="160" y="815"/>
      <point x="204" y="845" type="curve" smooth="yes"/>
      <point x="504" y="1045" type="line" smooth="yes"/>
      <point x="549" y="1075"/>
      <point x="562" y="1139"/>
      <point x="532" y="1183" type="curve" smooth="yes"/>
      <point x="502" y="1228"/>
      <point x="438" y="1241"/>
      <point x="394" y="1211" type="curve" smooth="yes"/>
      <point x="94" y="1011" type="line" smooth="yes"/>
      <point x="49" y="981"/>
      <point x="36" y="917"/>
    </contour>
    <contour>
      <point x="449" y="446" type="curve" smooth="yes"/>
      <point x="395" y="446"/>
      <point x="349" y="400"/>
      <point x="349" y="346" type="curve" smooth="yes"/>
      <point x="349" y="-4" type="line" smooth="yes"/>
      <point x="349" y="-58"/>
      <point x="395" y="-104"/>
      <point x="449" y="-104" type="curve" smooth="yes"/>
      <point x="503" y="-104"/>
      <point x="549" y="-58"/>
      <point x="549" y="-4" type="curve" smooth="yes"/>
      <point x="549" y="346" type="line" smooth="yes"/>
      <point x="549" y="400"/>
      <point x="503" y="446"/>
    </contour>
  </outline>
</glyph>
<glyph name="acircumflex" format="1">
  <advance width="900"/>
  <unicode hex="00E2"/>
  <outline>
    <contour>
      <point x="50" y="928" type="curve" smooth="yes"/>
      <point x="50" y="874"/>
      <point x="96" y="828"/>
      <point x="150" y="828" type="curve" smooth="yes"/>
      <point x="750" y="828" type="line" smooth="yes"/>
      <point x="804" y="828"/>
      <point x="850" y="874"/>
      <point x="850" y="928" type="curve" smooth="yes"/>
      <point x="850" y="982"/>
      <point x="804" y="1028"/>
      <point x="750" y="1028" type="curve" smooth="yes"/>
      <point x="150" y="1028" type="line" smooth="yes"/>
      <point x="96" y="1028"/>
      <point x="50" y="982"/>
    </contour>
    <contour>
      <point x="750" y="446" type="curve" smooth="yes"/>
      <point x="696" y="446"/>
      <point x="650" y="400"/>
      <point x="650" y="346" type="curve" smooth="yes"/>
      <point x="650" y="-4" type="line" smooth="yes"/>
      <point x="650" y="-58"/>
      <point x="696" y="-104"/>
      <point x="750" y="-104" type="curve" smooth="yes"/>
      <point x="804" y="-104"/>
      <point x="850" y="-58"/>
      <point x="850" y="-4" type="curve" smooth="yes"/>
      <point x="850" y="346" type="line" smooth="yes"/>
      <point x="850" y="400"/>
      <point x="804" y="446"/>
    </contour>
  </outline>
</glyph>
<glyph name="atilde" format="1">
  <advance width="900"/>
  <unicode hex="00E3"/>
  <outline>
    <contour>
      <point x="55" y="896" type="curve" smooth="yes"/>
      <point x="72" y="845"/>
      <point x="130" y="816"/>
      <point x="182" y="833" type="curve" smooth="yes"/>
      <point x="782" y="1033" type="line" smooth="yes"/>
      <point x="833" y="1050"/>
      <point x="862" y="1108"/>
      <point x="845" y="1160" type="curve" smooth="yes"/>
      <point x="828" y="1211"/>
      <point x="770" y="1240"/>
      <point x="718" y="1223" type="curve" smooth="yes"/>
      <point x="118" y="1023" type="line" smooth="yes"/>
      <point x="67" y="1006"/>
      <point x="38" y="948"/>
    </contour>
    <contour>
      <point x="750" y="446" type="curve" smooth="yes"/>
      <point x="696" y="446"/>
      <point x="650" y="400"/>
      <point x="650" y="346" type="curve" smooth="yes"/>
      <point x="650" y="-4" type="line" smooth="yes"/>
      <point x="650" y="-58"/>
      <point x="696" y="-104"/>
      <point x="750" y="-104" type="curve" smooth="yes"/>
      <point x="804" y="-104"/>
      <point x="850" y="-58"/>
      <point x="850" y="-4" type="curve" smooth="yes"/>
      <point x="850" y="346" type="line" smooth="yes"/>
      <point x="850" y="400"/>
      <point x="804" y="446"/>
    </contour>
  </outline>
</glyph>
<glyph name="egrave" format="1">
  <advance width="904"/>
  <unicode hex="00E8"/>
  <outline>
    <contour>
      <point x="532" y="873" type="curve" smooth="yes"/>
      <point x="562" y="917"/>
      <point x="549" y="981"/>
      <point x="504" y="1011" type="curve" smooth="yes"/>
      <point x="204" y="1211" type="line" smooth="yes"/>
      <point x="160" y="1241"/>
      <point x="96" y="1228"/>
      <point x="66" y="1183" type="curve" smooth="yes"/>
      <point x="36" y="1139"/>
      <point x="49" y="1075"/>
      <point x="94" y="1045" type="curve" smooth="yes"/>
      <point x="394" y="845" type="line" smooth="yes"/>
      <point x="438" y="815"/>
      <point x="502" y="828"/>
    </contour>
    <contour>
      <point x="626" y="-71" type="curve" smooth="yes"/>
      <point x="824" y="125" type="line" smooth="yes"/>
      <point x="863" y="163"/>
      <point x="863" y="228"/>
      <point x="825" y="266" type="curve" smooth="yes"/>
      <point x="787" y="305"/>
      <point x="722" y="305"/>
      <point x="684" y="267" type="curve" smooth="yes"/>
      <point x="541" y="126" type="line"/>
      <point x="350" y="245" type="line"/>
      <point x="804" y="516" type="line" smooth="yes"/>
      <point x="851" y="544"/>
      <point x="867" y="607"/>
      <point x="839" y="653" type="curve" smooth="yes"/>
      <point x="811" y="700"/>
      <point x="748" y="716"/>
      <point x="702" y="688" type="curve" smooth="yes"/>
      <point x="107" y="332" type="line" smooth="yes"/>
      <point x="37" y="291"/>
      <point x="36" y="204"/>
      <point x="105" y="162" type="curve" smooth="yes"/>
      <point x="501" y="-85" type="line" smooth="yes"/>
      <point x="519" y="-96"/>
      <point x="539" y="-100"/>
      <point x="559" y="-99" type="curve"/>
      <point x="583" y="-99"/>
      <point x="608" y="-89"/>
    </contour>
  </outline>
</glyph>
<glyph name="eacute" format="1">
  <advance width="900"/>
  <unicode hex="00E9"/>
  <outline>
    <contour>
      <point x="362" y="873" type="curve" smooth="yes"/>
      <point x="392" y="828"/>
      <point x="456" y="815"/>
      <point x="500" y="845" type="curve" smooth="yes"/>
      <point x="800" y="1045" type="line" smooth="yes"/>
      <point x="845" y="1075"/>
      <point x="858" y="1139"/>
      <point x="828" y="1183" type="curve" smooth="yes"/>
      <point x="798" y="1228"/>
      <point x="734" y="1241"/>
      <point x="690" y="1211" type="curve" smooth="yes"/>
      <point x="390" y="1011" type="line" smooth="yes"/>
      <point x="345" y="981"/>
      <point x="332" y="917"/>
    </contour>
    <contour>
      <point x="622" y="-71" type="curve" smooth="yes"/>
      <point x="820" y="125" type="line" smooth="yes"/>
      <point x="859" y="163"/>
      <point x="859" y="228"/>
      <point x="821" y="266" type="curve" smooth="yes"/>
      <point x="783" y="305"/>
      <point x="718" y="305"/>
      <point x="680" y="267" type="curve" smooth="yes"/>
      <point x="537" y="126" type="line"/>
      <point x="346" y="245" type="line"/>
      <point x="800" y="516" type="line" smooth="yes"/>
      <point x="847" y="544"/>
      <point x="863" y="607"/>
      <point x="835" y="653" type="curve" smooth="yes"/>
      <point x="807" y="700"/>
      <point x="744" y="716"/>
      <point x="698" y="688" type="curve" smooth="yes"/>
      <point x="103" y="332" type="line" smooth="yes"/>
      <point x="33" y="291"/>
      <point x="32" y="204"/>
      <point x="101" y="162" type="curve" smooth="yes"/>
      <point x="497" y="-85" type="line" smooth="yes"/>
      <point x="515" y="-96"/>
      <point x="535" y="-100"/>
      <point x="555" y="-99" type="curve"/>
      <point x="579" y="-99"/>
      <point x="604" y="-89"/>
    </contour>
  </outline>
</glyph>
<glyph name="ecircumflex" format="1">
  <advance width="904"/>
  <unicode hex="00EA"/>
  <outline>
    <contour>
      <point x="50" y="928" type="curve" smooth="yes"/>
      <point x="50" y="874"/>
      <point x="96" y="828"/>
      <point x="150" y="828" type="curve" smooth="yes"/>
      <point x="750" y="828" type="line" smooth="yes"/>
      <point x="804" y="828"/>
      <point x="850" y="874"/>
      <point x="850" y="928" type="curve" smooth="yes"/>
      <point x="850" y="982"/>
      <point x="804" y="1028"/>
      <point x="750" y="1028" type="curve" smooth="yes"/>
      <point x="150" y="1028" type="line" smooth="yes"/>
      <point x="96" y="1028"/>
      <point x="50" y="982"/>
    </contour>
    <contour>
      <point x="627" y="-71" type="curve" smooth="yes"/>
      <point x="825" y="125" type="line" smooth="yes"/>
      <point x="864" y="163"/>
      <point x="864" y="228"/>
      <point x="826" y="266" type="curve" smooth="yes"/>
      <point x="788" y="305"/>
      <point x="723" y="305"/>
      <point x="685" y="267" type="curve" smooth="yes"/>
      <point x="542" y="126" type="line"/>
      <point x="351" y="245" type="line"/>
      <point x="805" y="516" type="line" smooth="yes"/>
      <point x="852" y="544"/>
      <point x="868" y="607"/>
      <point x="840" y="653" type="curve" smooth="yes"/>
      <point x="812" y="700"/>
      <point x="749" y="716"/>
      <point x="703" y="688" type="curve" smooth="yes"/>
      <point x="108" y="332" type="line" smooth="yes"/>
      <point x="38" y="291"/>
      <point x="37" y="204"/>
      <point x="106" y="162" type="curve" smooth="yes"/>
      <point x="502" y="-85" type="line" smooth="yes"/>
      <point x="520" y="-96"/>
      <point x="540" y="-100"/>
      <point x="560" y="-99" type="curve"/>
      <point x="584" y="-99"/>
      <point x="609" y="-89"/>
    </contour>
  </outline>
</glyph>
<glyph name="icircumflex" format="1">
  <advance width="904"/>
  <unicode hex="00EE"/>
  <outline>
    <contour>
      <point x="240" y="-45" type="curve" smooth="yes"/>
      <point x="527" y="548" type="line"/>
      <point x="802" y="713" type="line" smooth="yes"/>
      <point x="848" y="741"/>
      <point x="864" y="804"/>
      <point x="836" y="851" type="curve" smooth="yes"/>
      <point x="833" y="854"/>
      <point x="831" y="858"/>
      <point x="828" y="862" type="curve"/>
      <point x="844" y="879"/>
      <point x="854" y="903"/>
      <point x="854" y="928" type="curve" smooth="yes"/>
      <point x="854" y="982"/>
      <point x="808" y="1028"/>
      <point x="754" y="1028" type="curve" smooth="yes"/>
      <point x="154" y="1028" type="line" smooth="yes"/>
      <point x="100" y="1028"/>
      <point x="54" y="982"/>
      <point x="54" y="928" type="curve" smooth="yes"/>
      <point x="54" y="874"/>
      <point x="100" y="828"/>
      <point x="154" y="828" type="curve" smooth="yes"/>
      <point x="604" y="828" type="line"/>
      <point x="398" y="704" type="line" smooth="yes"/>
      <point x="384" y="696"/>
      <point x="367" y="677"/>
      <point x="360" y="662" type="curve" smooth="yes"/>
      <point x="60" y="43" type="line" smooth="yes"/>
      <point x="36" y="-6"/>
      <point x="58" y="-68"/>
      <point x="106" y="-91" type="curve" smooth="yes"/>
      <point x="155" y="-115"/>
      <point x="217" y="-93"/>
    </contour>
  </outline>
</glyph>
<glyph name="ntilde" format="1">
  <advance width="904"/>
  <unicode hex="00F1"/>
  <outline>
    <contour>
      <point x="59" y="896" type="curve" smooth="yes"/>
      <point x="76" y="845"/>
      <point x="134" y="816"/>
      <point x="186" y="833" type="curve" smooth="yes"/>
      <point x="786" y="1033" type="line" smooth="yes"/>
      <point x="837" y="1050"/>
      <point x="866" y="1108"/>
      <point x="849" y="1160" type="curve" smooth="yes"/>
      <point x="832" y="1211"/>
      <point x="774" y="1240"/>
      <point x="722" y="1223" type="curve" smooth="yes"/>
      <point x="122" y="1023" type="line" smooth="yes"/>
      <point x="71" y="1006"/>
      <point x="42" y="948"/>
    </contour>
    <contour>
      <point x="250" y="-1" type="curve" smooth="yes"/>
      <point x="250" y="58" type="line"/>
      <point x="437" y="482" type="line"/>
      <point x="661" y="53" type="line" smooth="yes"/>
      <point x="713" y="-46"/>
      <point x="850" y="-13"/>
      <point x="850" y="99" type="curve" smooth="yes"/>
      <point x="850" y="799" type="line" smooth="yes"/>
      <point x="850" y="853"/>
      <point x="804" y="899"/>
      <point x="750" y="899" type="curve" smooth="yes"/>
      <point x="696" y="899"/>
      <point x="650" y="853"/>
      <point x="650" y="799" type="curve" smooth="yes"/>
      <point x="650" y="507" type="line"/>
      <point x="518" y="759" type="line" smooth="yes"/>
      <point x="476" y="840"/>
      <point x="375" y="837"/>
      <point x="338" y="753" type="curve" smooth="yes"/>
      <point x="59" y="119" type="line" smooth="yes"/>
      <point x="54" y="109"/>
      <point x="50" y="91"/>
      <point x="50" y="79" type="curve" smooth="yes"/>
      <point x="50" y="-1" type="line" smooth="yes"/>
      <point x="50" y="-55"/>
      <point x="96" y="-101"/>
      <point x="150" y="-101" type="curve" smooth="yes"/>
      <point x="204" y="-101"/>
      <point x="250" y="-55"/>
    </contour>
  </outline>
</glyph>
<glyph name="uacute" format="1">
  <advance width="900"/>
  <unicode hex="00FA"/>
  <outline>
    <contour>
      <point x="368" y="873" type="curve" smooth="yes"/>
      <point x="398" y="828"/>
      <point x="462" y="815"/>
      <point x="506" y="845" type="curve" smooth="yes"/>
      <point x="806" y="1045" type="line" smooth="yes"/>
      <point x="851" y="1075"/>
      <point x="864" y="1139"/>
      <point x="834" y="1183" type="curve" smooth="yes"/>
      <point x="804" y="1228"/>
      <point x="740" y="1241"/>
      <point x="696" y="1211" type="curve" smooth="yes"/>
      <point x="396" y="1011" type="line" smooth="yes"/>
      <point x="351" y="981"/>
      <point x="338" y="917"/>
    </contour>
    <contour>
      <point x="838" y="98" type="curve" smooth="yes"/>
      <point x="849" y="797" type="line" smooth="yes"/>
      <point x="850" y="851"/>
      <point x="805" y="898"/>
      <point x="751" y="899" type="curve" smooth="yes"/>
      <point x="697" y="900"/>
      <point x="650" y="855"/>
      <point x="649" y="801" type="curve" smooth="yes"/>
      <point x="641" y="279" type="line"/>
      <point x="250" y="524" type="line"/>
      <point x="250" y="799" type="line" smooth="yes"/>
      <point x="250" y="853"/>
      <point x="204" y="899"/>
      <point x="150" y="899" type="curve" smooth="yes"/>
      <point x="96" y="899"/>
      <point x="50" y="853"/>
      <point x="50" y="799" type="curve" smooth="yes"/>
      <point x="50" y="469" type="line" smooth="yes"/>
      <point x="50" y="438"/>
      <point x="71" y="401"/>
      <point x="97" y="384" type="curve" smooth="yes"/>
      <point x="685" y="15" type="line" smooth="yes"/>
      <point x="757" y="-30"/>
      <point x="837" y="13"/>
    </contour>
  </outline>
</glyph>
<glyph name="ucircumflex" format="1">
  <advance width="901"/>
  <unicode hex="00FB"/>
  <outline>
    <contour>
      <point x="838" y="98" type="curve" smooth="yes"/>
      <point x="849" y="797" type="line" smooth="yes"/>
      <point x="849" y="822"/>
      <point x="840" y="845"/>
      <point x="826" y="862" type="curve"/>
      <point x="841" y="880"/>
      <point x="851" y="903"/>
      <point x="851" y="928" type="curve" smooth="yes"/>
      <point x="851" y="982"/>
      <point x="805" y="1028"/>
      <point x="751" y="1028" type="curve" smooth="yes"/>
      <point x="151" y="1028" type="line" smooth="yes"/>
      <point x="97" y="1028"/>
      <point x="51" y="982"/>
      <point x="51" y="928" type="curve" smooth="yes"/>
      <point x="51" y="904"/>
      <point x="60" y="882"/>
      <point x="75" y="864" type="curve"/>
      <point x="60" y="846"/>
      <point x="50" y="824"/>
      <point x="50" y="799" type="curve" smooth="yes"/>
      <point x="50" y="469" type="line" smooth="yes"/>
      <point x="50" y="438"/>
      <point x="71" y="401"/>
      <point x="97" y="384" type="curve" smooth="yes"/>
      <point x="685" y="15" type="line" smooth="yes"/>
      <point x="757" y="-30"/>
      <point x="837" y="13"/>
    </contour>
    <contour>
      <point x="649" y="801" type="curve" smooth="yes"/>
      <point x="641" y="279" type="line"/>
      <point x="250" y="524" type="line"/>
      <point x="250" y="799" type="line" smooth="yes"/>
      <point x="250" y="809"/>
      <point x="248" y="819"/>
      <point x="245" y="828" type="curve"/>
      <point x="654" y="828" type="line"/>
      <point x="651" y="819"/>
      <point x="649" y="810"/>
    </contour>
  </outline>
</glyph>
<glyph name="tilde" format="1">
  <advance width="900"/>
  <unicode hex="02DC"/>
  <outline>
    <contour>
      <point x="55" y="896" type="curve" smooth="yes"/>
      <point x="72" y="845"/>
      <point x="130" y="816"/>
      <point x="182" y="833" type="curve" smooth="yes"/>
      <point x="782" y="1033" type="line" smooth="yes"/>
      <point x="833" y="1050"/>
      <point x="862" y="1108"/>
      <point x="845" y="1160" type="curve" smooth="yes"/>
      <point x="828" y="1211"/>
      <point x="770" y="1240"/>
      <point x="718" y="1223" type="curve" smooth="yes"/>
      <point x="118" y="1023" type="line" smooth="yes"/>
      <point x="67" y="1006"/>
      <point x="38" y="948"/>
    </contour>
  </outline>
</glyph>
<glyph name="emdash" format="1">
  <advance width="700"/>
  <unicode hex="2014"/>
  <outline>
    <contour>
      <point x="50" y="272" type="curve" smooth="yes"/>
      <point x="50" y="218"/>
      <point x="96" y="172"/>
      <point x="150" y="172" type="curve" smooth="yes"/>
      <point x="550" y="172" type="line" smooth="yes"/>
      <point x="604" y="172"/>
      <point x="650" y="218"/>
      <point x="650" y="272" type="curve" smooth="yes"/>
      <point x="650" y="326"/>
      <point x="604" y="372"/>
      <point x="550" y="372" type="curve" smooth="yes"/>
      <point x="150" y="372" type="line" smooth="yes"/>
      <point x="96" y="372"/>
      <point x="50" y="326"/>
    </contour>
  </outline>
</glyph>
<glyph name="quoteleft" format="1">
  <advance width="399"/>
  <unicode hex="2018"/>
  <outline>
    <contour>
      <point x="105" y="515" type="curve" smooth="yes"/>
      <point x="154" y="490"/>
      <point x="215" y="511"/>
      <point x="239" y="559" type="curve" smooth="yes"/>
      <point x="339" y="759" type="line" smooth="yes"/>
      <point x="364" y="808"/>
      <point x="343" y="869"/>
      <point x="295" y="893" type="curve" smooth="yes"/>
      <point x="246" y="918"/>
      <point x="185" y="897"/>
      <point x="161" y="849" type="curve" smooth="yes"/>
      <point x="61" y="649" type="line" smooth="yes"/>
      <point x="36" y="600"/>
      <point x="57" y="539"/>
    </contour>
  </outline>
</glyph>
<glyph name="quoteright" format="1">
  <advance width="399"/>
  <unicode hex="2019"/>
  <outline>
    <contour>
      <point x="295" y="888" type="curve" smooth="yes"/>
      <point x="246" y="913"/>
      <point x="185" y="892"/>
      <point x="161" y="844" type="curve" smooth="yes"/>
      <point x="61" y="644" type="line" smooth="yes"/>
      <point x="36" y="595"/>
      <point x="57" y="534"/>
      <point x="105" y="510" type="curve" smooth="yes"/>
      <point x="154" y="485"/>
      <point x="215" y="506"/>
      <point x="239" y="554" type="curve" smooth="yes"/>
      <point x="339" y="754" type="line" smooth="yes"/>
      <point x="364" y="803"/>
      <point x="343" y="864"/>
    </contour>
  </outline>
</glyph>
